<svg xmlns="http://www.w3.org/2000/svg" viewBox="1618.4 1225.4 79.6 79.6"><defs><style>.a{fill:#fff;}</style></defs><path class="a" d="M39.8,0A39.8,39.8,0,1,0,79.6,39.8,39.8,39.8,0,0,0,39.8,0ZM21.373,24.569v31.84a.994.994,0,0,1-.345.8,1.278,1.278,0,0,1-.8.345H17.957a1.171,1.171,0,0,1-1.144-1.144V26.841H13.053c-.8,0-1.144-.345-1.144-1.144V23.426c0-.8.345-1.144,1.144-1.144h6.033a2.067,2.067,0,0,1,1.6.689A1.861,1.861,0,0,1,21.373,24.569ZM43.326,49.249a7.7,7.7,0,0,1-.689,3.181A8.982,8.982,0,0,1,38.2,56.864a7.763,7.763,0,0,1-6.362,0,8.982,8.982,0,0,1-4.434-4.434,7.7,7.7,0,0,1-.689-3.181v-2.4c0-.8.345-1.144,1.144-1.144h2.272c.8,0,1.144.345,1.144,1.144v2.382a3.628,3.628,0,0,0,1.019,2.617,2.683,2.683,0,0,0,2.272,1.144,3.628,3.628,0,0,0,2.617-1.019A3.763,3.763,0,0,0,38.2,49.358v-.909c-.11-.11-.11-.235-.235-.345L28.079,35.021a16.619,16.619,0,0,1-1.019-1.363,7.025,7.025,0,0,1-.454-.909,2.3,2.3,0,0,1-.235-.909V30.477a7.7,7.7,0,0,1,.689-3.181A8.982,8.982,0,0,1,31.5,22.861a7.763,7.763,0,0,1,6.362,0A8.982,8.982,0,0,1,42.291,27.3a7.7,7.7,0,0,1,.689,3.181v2.382c0,.8-.345,1.144-1.144,1.144H39.565c-.8,0-1.144-.345-.8-1.254V30.367a3.628,3.628,0,0,0-1.019-2.617,3.763,3.763,0,0,0-2.617-1.019,3.628,3.628,0,0,0-2.617,1.019A3.763,3.763,0,0,0,31.5,30.367v.909c.11.11.11.235.235.345L41.618,44.7a16.618,16.618,0,0,1,1.019,1.363,3.294,3.294,0,0,1,.454.909,2.3,2.3,0,0,1,.235.909ZM58.572,25.7c0,.8-.345,1.144-1.144,1.144H54.247V56.409A1.171,1.171,0,0,1,53.1,57.553H50.831a1.171,1.171,0,0,1-1.144-1.144V26.841H46.506c-.8,0-1.144-.345-1.144-1.144V23.426c0-.8.345-1.144,1.144-1.144H57.428c.8,0,1.144.345,1.144,1.144V25.7Zm8.634,30.712c0,.8-.345,1.144-1.144,1.144H63.79c-.8,0-1.144-.345-1.144-1.144V31.276c0-.8.345-1.144,1.144-1.144h2.272a1.171,1.171,0,0,1,1.144,1.144ZM64.934,27.186a2.617,2.617,0,1,1,2.617-2.617A2.642,2.642,0,0,1,64.934,27.186Z" transform="translate(1618.4 1225.4)"/></svg>