<svg xmlns="http://www.w3.org/2000/svg" viewBox="554.317 40.755 48 36"><defs><style>.a{fill:#fff;}</style></defs><g transform="translate(-130 -144)"><g transform="translate(684.317 184.755)"><path class="a" d="M252.91,20.589a.689.689,0,0,0-.942,0l-7.462,7.3-.942-.921,7.462-7.3a.653.653,0,0,0,0-.921.689.689,0,0,0-.942,0l-7.426,7.264c-.145-.177-.29-.319-.435-.5h0a2.9,2.9,0,0,0-.507-.425l7.426-7.264a.653.653,0,0,0,0-.921.689.689,0,0,0-.942,0l-7.426,7.3-.942-.921,7.426-7.3a.653.653,0,0,0,0-.921h0a.689.689,0,0,0-.942,0l-7.426,7.3-1.666,1.63-.362.354-1.05,1.028-.543.531c-.688.673-.507,1.984.362,3.331L216.8,47.659a1.833,1.833,0,0,0,0,2.657,1.932,1.932,0,0,0,2.717,0l18.8-18.39c1.413.886,2.862,1.1,3.55.425l.543-.531,1.05-1.028.362-.354,1.666-1.63,7.462-7.3A.69.69,0,0,0,252.91,20.589Z" transform="translate(-205.105 -14.875)"/><path class="a" d="M200.077,28.011c-5.651-5.528-11.881-8.433-13.91-6.449h0c-.036,0-.036.035-.072.035a1.833,1.833,0,0,0,0,2.657l30.572,29.906a1.932,1.932,0,0,0,2.717,0,1.833,1.833,0,0,0,0-2.657L207.25,39.633C207.213,36.869,204.46,32.263,200.077,28.011Z" transform="translate(-185.525 -18.79)"/></g></g></svg>