<svg xmlns="http://www.w3.org/2000/svg" viewBox="557.335 106.959 44.929 38.41"><defs><style>.a{fill:#fff;}.b{fill:none;}</style></defs><g transform="translate(-186 -147)"><path class="a" d="M425.565,43.9c-.73,48.887,16.834,10.877,20.677,2.037C441.63,53.854,425.565,43.9,425.565,43.9Zm5.035,5.611s4.3,2.921,5.957,1.96c.192-.154.269-.231.269-.231-.077.077-.192.154-.269.231C435.1,52.624,428.332,57.544,430.6,49.511Zm-2.191,5.342s4.8,13.221,9.685,3.305C438.132,58.12,428.6,78.452,428.409,54.853Zm8.993-2.844s3.613,1.268,4.612.269a.853.853,0,0,0,.154-.192.384.384,0,0,1-.154.192C441.168,53.355,437.287,58.12,437.4,52.009Z" transform="translate(342.021 224.011)"/><path class="b" d="M409.176,79.976c-3.8-6,.038-7.264,3.69-7.379-.077-.692-.115-1.422-.192-2.191C398.146,63.526,409.176,79.976,409.176,79.976Z" transform="translate(354.566 208.727)"/><path class="b" d="M445.3,63.784a11.567,11.567,0,0,1-2.268-.884c-.077.73-.154,1.422-.231,2.114A8.184,8.184,0,0,0,445.3,63.784Z" transform="translate(331.397 212.313)"/><path class="b" d="M438.1,92c1,.231,2.46-1.384,3.843-3.421a3.316,3.316,0,0,1-1.076.154A4.918,4.918,0,0,1,437.6,86.7a25.665,25.665,0,0,1-1,2.921C437.1,91.5,437.715,91.927,438.1,92Z" transform="translate(335.214 197.66)"/><path class="b" d="M409.94,34.366l.846.538a.475.475,0,0,0,.115.077,12.922,12.922,0,0,0-.653-4.881s-6.572,4.5-9.147,3.036c1.5,1.153,6.572,4.881,8.8,3.651V35.4Z" transform="translate(357.07 232.507)"/><path class="b" d="M438.788,74.162c1.46.077,2.69-1.768,3.5-3.382l1.038.5c-.692,1.46-4.112,8.455-7.187,8.455a1.577,1.577,0,0,1-.423-.038,3.038,3.038,0,0,1-1.96-2.037c-.231.346-.423.692-.653,1,.692,1.384,1.384,1.883,2,2,3.113.653,7.879-6.572,12.145-15.22l-.115.115h0c-1.23,1.614-2.959,3.382-4.3,2.921-1.191-.423-1.345-2.229-1.307-3.574-1.268.961-3.228,2.306-4.8,2.537-.231,1.653-.5,3.113-.807,4.42C436.713,73.125,437.712,74.124,438.788,74.162Z" transform="translate(337.369 211.082)"/><path class="b" d="M400.523,37.446a3.659,3.659,0,0,1-.423-.346A.94.94,0,0,0,400.523,37.446Z" transform="translate(357.686 228.197)"/><path class="b" d="M379.4,40.523c1.268,1.691,7.225,8.993,7.072-.423C386.472,40.1,380.937,42.06,379.4,40.523Z" transform="translate(370.43 226.35)"/><path class="b" d="M447.49,57.436a2.358,2.358,0,0,0,.231-.192l.346.384.769.269c1.537.538,3.5.846,4,.423a.663.663,0,0,0,.115-.154l.961.576c.615-1.23,1.191-2.5,1.768-3.766a7.111,7.111,0,0,1-1.845.73,9.952,9.952,0,0,1-2.421.269,22.339,22.339,0,0,1-7.456-1.576c-.038.692-.115,1.345-.154,2C445.222,57.206,446.8,57.821,447.49,57.436Z" transform="translate(330.781 217.546)"/><path class="b" d="M379.031,40.707c-.154-.192-.231-.307-.231-.307A.926.926,0,0,0,379.031,40.707Z" transform="translate(370.799 226.165)"/><path class="b" d="M429.26,75.469c-.5-.269-1-.538-1.46-.769.038.576.077,1.115.154,1.614.461,0,.922.038,1.345.077C429.3,76.122,429.26,75.815,429.26,75.469Z" transform="translate(340.632 205.048)"/><path class="a" d="M382.908,42.344s-10.992-16.488,3.5-9.57c-.192-2.844-.269-6.111-.231-9.877-2.229,1.23-7.3-2.46-8.8-3.651a1.2,1.2,0,0,1-.423-.346s.154.115.423.346c2.575,1.46,9.147-3.036,9.147-3.036a12.922,12.922,0,0,1,.653,4.881,50.729,50.729,0,0,0,6.8,3.305c.307-4.65.423-10.185.307-16.8,0,0-24.713,15.3-31.784,3.152,4.074,9.416,18.294,40.316,26.25,33.475-1.038-1.883-1.768-5-2.191-9.262C382.947,35.08,379.065,36.387,382.908,42.344ZM369,20.514a.924.924,0,0,1-.231-.307s.077.115.231.307c1.537,1.537,7.072-.423,7.072-.423C376.221,29.545,370.264,22.2,369,20.514Z" transform="translate(380.835 246.359)"/></g></svg>