<svg xmlns="http://www.w3.org/2000/svg" viewBox="210.602 458.476 360.398 188.049"><defs><style>.a{fill:#f26522;}.b{fill:#fff;}</style></defs><g transform="translate(210.602 458.502)"><path class="a" d="M.334,44.858h4v4H11.68s1-8.009,7.008-2H28.7V52.2H43.715v2l7.341-3,3.337.667v5.006l1.669-2H67.408v2.67h3l2.836-.834,10.178.834v8.676l13.682,2h16.685v3.671h9.01V76.56h7.008v5.006h4.672v3.671h9.344v8.009l2.5.033v1.8l2.6-.5-.267,1.5H153l.334-2L155,93.412V90.075l12.347.334-.167,2.836h5.006v6.34h2v-2h10.345v2h19.021v3.337h20.689v3h32.369v-5.673l-3-3,3,.334V84.235l-2.336-1.669L274.3,81.9v-2.67l-3.337-.334.667-1.669h2.67V73.556l15.017-.667v-4l-3.337-1.669,3.337-1.335v-2l-2-.334,2-2.67V51.2l-1.668-1,3.771-1.335,1.9-.667V34.513l32.369-3v8.009l1.668.334v6.674l5.006.667V39.185h10.678V33.512l-3.337-.334L360.4,22.5V203.032H0Z" transform="translate(0 -15.009)"/><rect class="b" width="4.004" height="1.335" transform="translate(54.226 43.03)"/><rect class="b" width="3.671" height="1.669" transform="translate(49.888 42.697)"/><path class="b" d="M182.5,132v1l1,.667h1V132Z" transform="translate(-121.599 -87.968)"/><path class="b" d="M175.5,132v.334l1.335.334V132Z" transform="translate(-116.935 -87.968)"/><path class="b" d="M189,137.835v1h2V136.5Z" transform="translate(-125.93 -90.967)"/><path class="b" d="M197,136.5v1.668h2v-1h3V136.5Z" transform="translate(-131.261 -90.967)"/><path class="b" d="M232,142.5l1,1.335h1V142.5Z" transform="translate(-154.581 -94.965)"/><rect class="b" width="1.669" height="1.669" transform="translate(81.089 47.535)"/><rect class="b" width="0.667" height="1.335" transform="translate(75.417 44.198)"/><rect class="b" width="1.001" height="1.001" transform="translate(77.752 44.532)"/><rect class="b" width="1.335" height="1.001" transform="translate(80.422 43.197)"/><rect class="b" width="1.335" height="1.669" transform="translate(78.587 52.04)"/><rect class="b" width="0.667" height="0.667" transform="translate(82.257 52.374)"/><path class="b" d="M234,162.5h-1v2Z" transform="translate(-155.248 -108.291)"/><rect class="b" width="1.001" height="1.001" transform="translate(75.75 56.212)"/><rect class="b" width="0.667" height="0.667" transform="translate(62.402 62.218)"/><rect class="b" width="0.667" height="1.001" transform="translate(65.072 62.218)"/><rect class="b" width="1.001" height="1.001" transform="translate(64.738 57.213)"/><rect class="b" width="0.667" height="1.335" transform="translate(71.746 61.551)"/><rect class="b" width="1.001" height="1.001" transform="translate(76.751 59.882)"/><rect class="b" width="1.001" height="1.669" transform="translate(74.749 65.222)"/><rect class="b" width="2.002" height="2.67" transform="translate(82.758 59.549)"/><path class="b" d="M256.7,177.5s-.334,1.335,0,1.335h3.337v-1Z" transform="translate(-170.943 -118.285)"/><path class="b" d="M257,184.5v1.335l3,.667v-2Z" transform="translate(-171.239 -122.949)"/><rect class="b" width="1.001" height="1.001" transform="translate(90.099 61.551)"/><rect class="b" width="3.003" height="2.336" transform="translate(89.766 64.221)"/><rect class="b" width="2.002" height="2.002" transform="translate(93.103 64.221)"/><rect class="b" width="1.669" height="1.335" transform="translate(95.439 64.554)"/><path class="b" d="M286,184.5v1.335l2.336-.334v-1Z" transform="translate(-190.561 -122.949)"/><rect class="b" width="1.335" height="0.667" transform="translate(98.442 61.551)"/><path class="b" d="M236,211.834l2-.334v1.335l-2,.334v-1.335Z" transform="translate(-157.246 -140.939)"/><path class="b" d="M216,207.5v1.669l1,.667h1.669V207.5Z" transform="translate(-143.92 -138.274)"/><path class="b" d="M205,207.5v.334h.667v1.335H208V207.5Z" transform="translate(-136.591 -138.274)"/><path class="b" d="M215,217.5v1h.334v2.67h.334V217.5Z" transform="translate(-143.254 -144.937)"/><rect class="b" width="4.004" height="2.002" transform="translate(1.335 35.188)"/><rect class="b" width="3.337" height="2.002" transform="translate(6.007 35.188)"/><rect class="b" width="3.003" height="2.002" transform="translate(10.011 35.522)"/><rect class="b" width="1.335" height="1.335" transform="translate(19.021 36.523)"/><rect class="b" width="1.335" height="0.667" transform="translate(19.021 40.528)"/><rect class="b" width="0.667" height="0.667" transform="translate(22.358 41.529)"/><rect class="b" width="1.669" height="1.669" transform="translate(24.027 44.198)"/><rect class="b" width="1.335" height="1.335" transform="translate(29.366 48.203)"/><rect class="b" width="0.667" height="0.667" transform="translate(29.032 40.861)"/><rect class="b" width="2.336" height="1.001" transform="translate(24.36 33.52)"/><rect class="b" width="2.336" height="1.001" transform="translate(21.357 33.52)"/><rect class="b" width="2.336" height="1.335" transform="translate(11.012 46.534)"/><rect class="b" width="0.667" height="0.667" transform="translate(14.349 46.868)"/><rect class="b" width="2.002" height="1.335" transform="translate(10.345 41.529)"/><rect class="b" width="1.669" height="1.669" transform="translate(7.008 41.195)"/><rect class="b" width="2.336" height="1.669" transform="translate(1.335 41.529)"/><rect class="b" width="1.001" height="2.002" transform="translate(2.67 45.533)"/><rect class="b" width="1.001" height="1.669" transform="translate(6.34 45.867)"/><rect class="b" width="0.667" height="0.667" transform="translate(0.667 45.533)"/><rect class="b" width="1.001" height="1.001" transform="translate(23.693 40.528)"/><rect class="b" width="1.335" height="1.669" transform="translate(28.698 44.198)"/><path class="b" d="M69,144.5v.334h2v.667h1.335v-.667H73V144.5Z" transform="translate(-45.975 -96.297)"/><path class="b" d="M106,113.5v2h1l.334,1L109,114.835V113.5Z" transform="translate(-70.628 -75.642)"/><path class="b" d="M148,118.835V117.5h-1v1Z" transform="translate(-97.946 -78.307)"/><path class="b" d="M251,156.5v2.336h.667V157.5l2-.334L253,156.5Z" transform="translate(-167.241 -104.293)"/><path class="b" d="M264,169.834v.667h1.669v-1Z" transform="translate(-175.903 -112.955)"/><path class="b" d="M284,160.5v2.336h.667V161.5H287v-1Z" transform="translate(-189.229 -106.958)"/><rect class="b" width="2.336" height="1.001" transform="translate(89.432 53.542)"/><rect class="b" width="0.667" height="1.001" transform="translate(100.778 58.214)"/><path class="b" d="M328,167.5v1.669h.667L329,167.5Z" transform="translate(-218.546 -111.622)"/><path class="b" d="M319,178.5l.667,1.335h.667v-1Z" transform="translate(-212.549 -118.951)"/><rect class="b" width="0.667" height="2.002" transform="translate(107.118 63.219)"/><rect class="b" width="1.001" height="1.001" transform="translate(110.455 62.552)"/><rect class="b" width="0.667" height="1.669" transform="translate(112.791 57.546)"/><rect class="b" width="0.334" height="0.334" transform="translate(115.127 58.214)"/><rect class="b" width="1.335" height="1.335" transform="translate(118.13 65.889)"/><rect class="b" width="1.001" height="1.001" transform="translate(115.461 65.889)"/><rect class="b" width="1.001" height="1.001" transform="translate(118.464 70.561)"/><rect class="b" width="0.667" height="1.669" transform="translate(125.805 63.553)"/><rect class="b" width="0.667" height="2.002" transform="translate(127.808 64.221)"/><rect class="b" width="1.001" height="1.001" transform="translate(120.466 64.221)"/><rect class="b" width="1.001" height="2.336" transform="translate(122.468 67.224)"/><rect class="b" width="1.001" height="2.002" transform="translate(120.466 67.224)"/><rect class="b" width="0.667" height="1.669" transform="translate(130.477 68.892)"/><rect class="b" width="1.335" height="2.67" transform="translate(124.804 77.902)"/><rect class="b" width="0.667" height="1.669" transform="translate(128.809 77.902)"/><rect class="b" width="0.667" height="1.669" transform="translate(133.814 77.235)"/><rect class="b" width="0.667" height="1.669" transform="translate(135.483 77.235)"/><rect class="b" width="1.001" height="2.336" transform="translate(131.145 81.573)"/><rect class="b" width="0.667" height="1.669" transform="translate(133.814 81.573)"/><rect class="b" width="1.669" height="0.667" transform="translate(109.454 66.223)"/><rect class="b" width="2.002" height="1.001" transform="translate(106.451 65.889)"/><rect class="b" width="1.001" height="1.001" transform="translate(100.778 66.223)"/><rect class="b" width="2.002" height="2.002" transform="translate(97.775 66.223)"/><rect class="b" width="1.001" height="1.001" transform="translate(139.487 74.232)"/><rect class="b" width="0.667" height="0.667" transform="translate(141.823 74.565)"/><rect class="b" width="0.667" height="0.667" transform="translate(141.156 71.562)"/><rect class="b" width="0.667" height="1.335" transform="translate(143.992 81.406)"/><rect class="b" width="0.667" height="1.001" transform="translate(143.325 84.409)"/><rect class="b" width="0.667" height="1.001" transform="translate(138.653 91.083)"/><rect class="b" width="1.001" height="1.669" transform="translate(138.653 95.422)"/><rect class="b" width="1.001" height="2.336" transform="translate(144.66 94.754)"/><rect class="b" width="0.667" height="2.002" transform="translate(147.663 94.754)"/><rect class="b" width="0.667" height="2.002" transform="translate(148.998 94.754)"/><rect class="b" width="1.335" height="1.669" transform="translate(146.328 90.416)"/><rect class="b" width="1.669" height="1.669" transform="translate(142.991 90.75)"/><rect class="b" width="1.335" height="0.667" transform="translate(151.167 89.248)"/><rect class="b" width="0.667" height="1.669" transform="translate(151.834 89.916)"/><rect class="b" width="0.667" height="1.669" transform="translate(153.503 89.248)"/><rect class="b" width="0.667" height="1.335" transform="translate(155.171 89.248)"/><rect class="b" width="2.002" height="1.669" transform="translate(151.834 93.92)"/><rect class="b" width="1.669" height="1.001" transform="translate(153.836 85.577)"/><rect class="b" width="1.669" height="0.334" transform="translate(151.5 85.911)"/><rect class="b" width="1.335" height="2.67" transform="translate(156.506 83.909)"/><rect class="b" width="1.669" height="1.669" transform="translate(158.174 83.909)"/><rect class="b" width="0.667" height="2.002" transform="translate(160.51 83.909)"/><rect class="b" width="0.334" height="1.335" transform="translate(162.179 84.243)"/><rect class="b" width="0.667" height="1.335" transform="translate(160.177 89.248)"/><rect class="b" width="0.667" height="1.669" transform="translate(158.842 88.581)"/><rect class="b" width="1.001" height="1.335" transform="translate(164.849 80.572)"/><rect class="b" width="3.337" height="1.335" transform="translate(163.18 76.567)"/><rect class="b" width="1.335" height="1.335" transform="translate(161.178 76.567)"/><rect class="b" width="1.001" height="1.335" transform="translate(159.843 76.567)"/><rect class="b" width="1.335" height="1.335" transform="translate(158.174 76.901)"/><rect class="b" width="1.335" height="1.335" transform="translate(156.506 76.901)"/><rect class="b" width="0.667" height="1.669" transform="translate(161.178 80.572)"/><rect class="b" width="0.667" height="3.337" transform="translate(157.173 80.572)"/><rect class="b" width="2.336" height="3.671" transform="translate(157.007 116.445)"/><rect class="b" width="6.674" height="1.669" transform="translate(148.998 116.445)"/><rect class="b" width="3.337" height="1.669" transform="translate(152.335 118.113)"/><path class="b" d="M429,353.5v3l2-.667V353.5Z" transform="translate(-285.842 -235.554)"/><path class="b" d="M385,340.167v1l3-.667.334-1Z" transform="translate(-256.525 -226.225)"/><rect class="b" width="1.669" height="0.667" transform="translate(132.146 113.275)"/><rect class="b" width="1.001" height="1.669" transform="translate(131.145 119.615)"/><rect class="b" width="1.001" height="4.672" transform="translate(127.474 123.619)"/><path class="b" d="M391,372.169v2l1.669-2V370.5Z" transform="translate(-260.523 -246.881)"/><path class="b" d="M415,367.5v2.67l.667-.667v-2Z" transform="translate(-276.514 -244.882)"/><rect class="b" width="1.001" height="1.001" transform="translate(156.506 102.262)"/><rect class="b" width="1.669" height="2.336" transform="translate(153.503 99.259)"/><rect class="b" width="0.667" height="0.667" transform="translate(151.5 99.927)"/><rect class="b" width="1.001" height="2.002" transform="translate(159.176 98.592)"/><rect class="b" width="3.003" height="3.671" transform="translate(144.159 103.931)"/><rect class="b" width="2.002" height="1.001" transform="translate(148.163 107.602)"/><path class="b" d="M453,322.5v1h.667l.334-1Z" transform="translate(-301.833 -214.898)"/><rect class="b" width="1.001" height="1.001" transform="translate(155.171 106.267)"/><rect class="b" width="0.667" height="1.669" transform="translate(158.174 105.6)"/><rect class="b" width="0.667" height="0.667" transform="translate(154.504 110.939)"/><rect class="b" width="0.667" height="1.669" transform="translate(158.174 110.271)"/><rect class="b" width="1.001" height="1.669" transform="translate(160.177 110.271)"/><rect class="b" width="1.335" height="1.001" transform="translate(163.514 110.939)"/><rect class="b" width="1.001" height="1.001" transform="translate(167.852 110.605)"/><rect class="b" width="1.001" height="2.002" transform="translate(170.188 109.27)"/><rect class="b" width="1.001" height="2.336" transform="translate(171.856 107.935)"/><rect class="b" width="1.001" height="1.001" transform="translate(146.161 81.573)"/><rect class="b" width="1.001" height="1.001" transform="translate(177.195 83.909)"/><rect class="b" width="1.335" height="1.335" transform="translate(180.532 83.909)"/><rect class="b" width="1.001" height="1.001" transform="translate(192.546 92.251)"/><rect class="b" width="0.667" height="2.002" transform="translate(184.537 98.592)"/><rect class="b" width="1.001" height="2.336" transform="translate(186.205 98.258)"/><rect class="b" width="4.004" height="3.003" transform="translate(187.206 116.278)"/><rect class="b" width="1.669" height="2.67" transform="translate(191.878 116.278)"/><rect class="b" width="3.337" height="1.669" transform="translate(186.539 111.272)"/><rect class="b" width="1.335" height="1.335" transform="translate(192.546 104.598)"/><rect class="b" width="0.667" height="1.335" transform="translate(195.549 105.266)"/><rect class="b" width="1.335" height="1.335" transform="translate(199.887 105.266)"/><rect class="b" width="1.669" height="1.669" transform="translate(204.559 104.598)"/><rect class="b" width="1.001" height="1.001" transform="translate(208.563 106.601)"/><rect class="b" width="1.001" height="1.669" transform="translate(210.232 106.934)"/><rect class="b" width="0.667" height="1.335" transform="translate(196.884 85.244)"/><rect class="b" width="0.667" height="0.667" transform="translate(201.222 85.244)"/><rect class="b" width="1.001" height="1.001" transform="translate(191.878 85.244)"/><rect class="b" width="1.001" height="2.336" transform="translate(177.195 100.594)"/><rect class="b" width="1.669" height="1.669" transform="translate(174.526 101.595)"/><rect class="b" width="1.001" height="1.669" transform="translate(176.194 94.587)"/><rect class="b" width="1.335" height="1.335" transform="translate(173.858 95.255)"/><rect class="b" width="0.667" height="0.667" transform="translate(172.19 91.25)"/><rect class="b" width="0.667" height="0.667" transform="translate(173.858 90.917)"/><rect class="b" width="1.335" height="1.335" transform="translate(163.514 87.58)"/><rect class="b" width="1.001" height="1.001" transform="translate(170.521 96.59)"/><rect class="b" width="3.003" height="1.001" transform="translate(170.188 101.261)"/><rect class="b" width="1.335" height="1.335" transform="translate(168.186 100.928)"/><rect class="b" width="2.67" height="1.335" transform="translate(165.182 100.928)"/><rect class="b" width="0.334" height="2.336" transform="translate(182.535 98.592)"/><rect class="b" width="1.335" height="1.335" transform="translate(183.202 94.587)"/><rect class="b" width="3.003" height="0.334" transform="translate(177.529 90.583)"/><rect class="b" width="1.001" height="1.001" transform="translate(179.198 92.251)"/><rect class="b" width="1.001" height="1.001" transform="translate(177.529 92.251)"/><rect class="b" width="0.334" height="1.335" transform="translate(189.209 103.931)"/><rect class="b" width="1.335" height="1.335" transform="translate(177.529 108.937)"/><rect class="b" width="1.669" height="1.669" transform="translate(175.193 114.609)"/><rect class="b" width="2.336" height="1.001" transform="translate(183.869 116.278)"/><rect class="b" width="4.004" height="0.667" transform="translate(180.532 111.94)"/><rect class="b" width="0.334" height="2.002" transform="translate(184.537 106.601)"/><rect class="b" height="2.67" transform="translate(183.202 106.934)"/><rect class="b" width="4.672" height="0.667" transform="translate(193.547 96.923)"/><rect class="b" width="3.003" height="1.001" transform="translate(201.556 94.587)"/><rect class="b" width="1.335" height="1.669" transform="translate(207.562 93.92)"/><rect class="b" width="1.335" height="0.667" transform="translate(210.232 93.92)"/><rect class="b" width="0.334" height="0.334" transform="translate(204.559 92.251)"/><rect class="b" width="0.667" height="0.667" transform="translate(205.226 88.914)"/><rect class="b" width="1.001" height="1.001" transform="translate(208.23 88.914)"/><rect class="b" width="1.001" height="1.001" transform="translate(211.233 88.247)"/><rect class="b" width="6.674" height="1.001" transform="translate(216.572 88.914)"/><path class="a" d="M976,26.322v-.334l8.609-.834,6.607-3.637L1004.231,6.2l.267.234-13.081,15.35-.033.033-6.707,3.671Z" transform="translate(-650.307 -4.148)"/><rect class="a" width="1.335" height="10.278" transform="translate(354.219 -0.004) rotate(-0.931)"/><rect class="a" width="0.667" height="5.006" transform="translate(333.535 20.005)"/><rect class="a" width="0.667" height="4.672" transform="translate(338.54 20.005)"/><path class="a" d="M1008.943,62.873h-.334V57.8l-3.1,1.168-5.039,1.4-.067-.3,5.005-1.4,3.537-1.368Z" transform="translate(-666.565 -38.196)"/><path class="b" d="M939.341,485.5l-7.341,1v24.026l7.341-1.669Z" transform="translate(-620.99 -323.505)"/><path class="b" d="M883.678,491.5v11.346l-10.678,2V493.5Z" transform="translate(-581.679 -327.503)"/><path class="b" d="M800,485.5v9.677l7.008,2.67V487.5Z" transform="translate(-533.039 -323.505)"/><path class="b" d="M744,463.5v9.344l6.674,2.67v-9.677Z" transform="translate(-495.726 -308.846)"/><path class="b" d="M1070,503.5l3.337,2.67v17.352l-3.337-2Z" transform="translate(-712.939 -335.498)"/><path class="b" d="M701,447.5v8.676l6.007,2.67v-9.01Z" transform="translate(-467.075 -298.186)"/><path class="b" d="M988,347.5v17.352l5.339,1.668V347.5Z" transform="translate(-658.303 -231.556)"/><path class="b" d="M943,347.5v6.674l5.005,1V348.5Z" transform="translate(-628.32 -231.556)"/><path class="b" d="M1064,358.5v8.009l5.172,1v-7.675Z" transform="translate(-708.942 -238.885)"/><path class="b" d="M972,274.5v12.013l13.348.667V274.5l-6.674.667Z" transform="translate(-647.642 -182.916)"/><path class="b" d="M932,274.5v11.68l11.679,1V274.5Z" transform="translate(-620.99 -182.916)"/><path class="b" d="M909,274.5l.667,10.678,5.005,1V274.5Z" transform="translate(-605.665 -182.916)"/><rect class="b" width="3.671" height="4.004" transform="translate(346.048 67.558)"/><path class="b" d="M961,209.5v6.007h5.673V208.5Z" transform="translate(-640.313 -138.94)"/><path class="b" d="M1037,61.167v3l1.335-.667v-3Z" transform="translate(-690.952 -40.328)"/><path class="b" d="M1061,52.5h1v4.338l-1,1Z" transform="translate(-706.943 -34.998)"/><path class="b" d="M900,68.5v3.671h1.669V69.5Z" transform="translate(-599.669 -45.658)"/><path class="b" d="M913,74.17v-2h1.335l2-.667v2.67Z" transform="translate(-608.33 -47.657)"/><path class="b" d="M889,63.17V66.84h-4V60.5Z" transform="translate(-589.674 -40.328)"/><path class="b" d="M870,108.5v7.008h5.005l-1-1-2.336-.334,2-1V108.5Z" transform="translate(-579.68 -72.31)"/><path class="b" d="M911.668,136.84l-1.668.334v-6.007l1.668-.667Z" transform="translate(-606.332 -86.969)"/><path class="b" d="M899.668,142.507,898,142.84v-5.673l1.668-.667Z" transform="translate(-598.336 -90.967)"/><path class="b" d="M889,147.507l-1,.334v-6.007l1-.334Z" transform="translate(-591.673 -94.298)"/><rect class="b" width="1.001" height="3.671" transform="translate(290.988 52.541)"/><rect class="b" width="2.67" height="3.003" transform="translate(303.668 62.552)"/><rect class="b" width="3.671" height="3.671" transform="translate(279.642 63.887)"/><path class="b" d="M852,188.835v3.671h3.671V187.5Z" transform="translate(-567.686 -124.948)"/><path class="b" d="M799,205.5v8.009h13.014v1h6.34V206.5Z" transform="translate(-532.372 -136.941)"/><path class="b" d="M780.674,213.509H774V206.5l6.674-1Z" transform="translate(-515.715 -136.941)"/><path class="b" d="M800,266.5v4.338l3.337,1V266.5Z" transform="translate(-533.039 -177.586)"/><path class="b" d="M779,266.5v4h1.669l-1-1.335h1V266.5Z" transform="translate(-519.047 -177.586)"/><path class="b" d="M831,269.5v4.338h5.005l-2.67,1.335v5.006H835v-2.67h2V269.5Z" transform="translate(-553.694 -179.584)"/><rect class="b" width="5.006" height="8.009" transform="translate(260.621 102.262)"/><path class="b" d="M671,420.5v14.683l7.341,3.671V422.836Z" transform="translate(-447.086 -280.196)"/><rect class="b" width="1.669" height="6.007" transform="translate(244.937 120.95)"/><path class="b" d="M722,358.5h1.335v4l-1.335-1Z" transform="translate(-481.067 -238.885)"/><rect class="b" width="2.336" height="4.338" transform="translate(251.611 123.953)"/><path class="b" d="M740.5,296v8.676l4.338,2v-9.344Z" transform="translate(-493.394 -197.241)"/><path class="b" d="M729.5,293v7.675l2.336,1.335V294Z" transform="translate(-486.065 -195.242)"/><path class="b" d="M720.5,291v7.008s1.335,1.335,1.669.667,0-7.008,0-7.008Z" transform="translate(-480.068 -193.91)"/><rect class="b" width="3.671" height="7.008" transform="translate(233.09 99.76)"/><path class="b" d="M580.5,395l1,1v8.676l-1-2Z" transform="translate(-386.786 -263.205)"/><path class="b" d="M573.5,389.667l-1-.667.334,6.007.667.667Z" transform="translate(-381.456 -259.207)"/><path class="b" d="M676.5,514l4.672,2.336v2.67l-2.67.667-1-3.671h-1Z" transform="translate(-450.751 -342.494)"/><path class="b" d="M422.5,531.334v8.009h6.34V531Z" transform="translate(-281.511 -353.822)"/><path class="b" d="M459.5,528v2.336l3.337,1V529Z" transform="translate(-306.164 -351.823)"/><rect class="b" width="5.673" height="3.003" transform="translate(146.328 154.82)"/><rect class="b" width="5.673" height="3.003" transform="translate(133.647 154.82)"/><rect class="b" width="3.003" height="3.003" transform="translate(125.639 154.82)"/><rect class="b" width="4.338" height="4.004" transform="translate(134.315 139.137)"/><rect class="b" width="4.004" height="4.004" transform="translate(122.635 138.803)"/><rect class="b" width="5.006" height="4.004" transform="translate(158.008 140.471)"/><rect class="b" width="2.336" height="4.004" transform="translate(166.016 141.139)"/><rect class="b" width="1.335" height="1.669" transform="translate(169.687 128.458)"/><path class="b" d="M477.5,390.559h3v-2.336s-1.669-2-3,0Z" transform="translate(-318.158 -258.097)"/><path class="b" d="M445,389.059h3v-2.336s-1.669-2-3,0Z" transform="translate(-296.503 -257.097)"/><path class="b" d="M71,526.506V521.5l8.676,1.335v1H76.339V525.5Z" transform="translate(-47.307 -347.492)"/><path class="b" d="M29.006,497.5v2.67L24,501.5v-2Z" transform="translate(-15.991 -331.5)"/><rect class="b" width="1.001" height="3.003" transform="translate(9.01 171.005)"/><path class="b" d="M43,491.5v2.67l9.344-2.67v-2Z" transform="translate(-28.651 -326.17)"/><path class="b" d="M75,485.169v2l7.341-2-.667-1.669Z" transform="translate(-49.972 -322.172)"/><path class="b" d="M121,482.835v-.667l2-.667v1.335Z" transform="translate(-80.622 -320.84)"/><path class="b" d="M45,450.834v2.336h1.669V450.5Z" transform="translate(-29.983 -300.185)"/><path class="b" d="M68,443.167v2.67h3.337V442.5Z" transform="translate(-45.308 -294.854)"/><path class="b" d="M106,434.835v4l6.007-1.335v-4Z" transform="translate(-70.628 -288.857)"/><path class="b" d="M127,431.5v4l6.007-1.335V430.5Z" transform="translate(-84.62 -286.858)"/><path class="b" d="M147,429.167v3.671l3-.667V428.5Z" transform="translate(-97.946 -285.526)"/><rect class="b" width="1.335" height="1.001" transform="translate(53.392 146.645)"/><path class="b" d="M177,433.5v2l2.336.334V433.5Z" transform="translate(-117.935 -288.857)"/><rect class="b" width="2.002" height="2.002" transform="translate(62.736 141.639)"/><path class="b" d="M1,405.177v5.339l33.37-6.674-7.008-.667L50.722,399.5l.334-4-18.687,3.337,3.671,1.335Z" transform="translate(-0.666 -263.538)"/><path class="b" d="M41.67,388.836V386.5H39v3h2.67Z" transform="translate(-25.986 -257.541)"/><rect class="b" width="3.671" height="3.003" transform="translate(19.021 128.291)"/><path class="b" d="M3,393.837V390.5H.334L0,393.837Z" transform="translate(0 -260.207)"/><path class="b" d="M20,394.835v-.667l5.339-.667v1.335Z" transform="translate(-13.326 -262.205)"/><path class="b" d="M12.012,350.5v4.672L1,355.839v-4.672Z" transform="translate(-0.666 -233.555)"/><path class="b" d="M39,348.5v4.338l10.678-.667V347.5Z" transform="translate(-25.986 -231.556)"/><path class="b" d="M74,344.5v4.672l15.35-1.335V343.5Z" transform="translate(-49.306 -228.891)"/><rect class="b" width="1.669" height="1.669" transform="translate(37.375 125.288)"/><path class="b" d="M1,324.836H2l.334-2.336H1Z" transform="translate(-0.666 -214.898)"/><rect class="b" width="2.002" height="1.335" transform="translate(8.676 109.27)"/><rect class="b" width="3.003" height="3.003" transform="translate(14.349 106.267)"/><rect class="b" width="1.669" height="2.336" transform="translate(24.36 106.267)"/><rect class="b" width="1.335" height="1.335" transform="translate(1.001 98.592)"/><path class="b" d="M104,315.5h2v2.336l-2-.334Z" transform="translate(-69.295 -210.234)"/><path class="b" d="M97,288.167v2h2.336V287.5H97Z" transform="translate(-64.631 -191.578)"/><rect class="b" width="2.002" height="2.67" transform="translate(36.04 95.922)"/><rect class="b" width="3.337" height="2.336" transform="translate(8.676 87.58)"/><rect class="b" width="1.335" height="1.335" transform="translate(3.337 82.24)"/><path class="b" d="M76,260.5v4.672l13.014-.667-.334-3.337Z" transform="translate(-50.639 -173.588)"/><rect class="b" width="1.669" height="3.671" transform="translate(41.713 91.584)"/><path class="b" d="M104,255.835V254.5h2v2Z" transform="translate(-69.295 -169.59)"/><rect class="b" width="1.335" height="2.67" transform="translate(14.683 81.573)"/><path class="b" d="M167.5,395v4.338l8.676,1.335V395Z" transform="translate(-111.605 -263.205)"/><rect class="b" width="7.675" height="5.006" transform="translate(66.24 132.462)"/><path class="b" d="M232.172,394v4.338l-4.672,1.669v-4.672Z" transform="translate(-151.583 -262.539)"/><path class="b" d="M249.337,390.5v4l-3.337.667V391.5Z" transform="translate(-163.909 -260.207)"/><path class="b" d="M263.671,384.5v4L260,389.839v-4Z" transform="translate(-173.238 -256.209)"/><path class="b" d="M245.67,424.5v4.338l-2.67,1V425.5h1Z" transform="translate(-161.911 -282.861)"/><path class="b" d="M256,425.5v2l1.669-.667V424.5Z" transform="translate(-170.572 -282.861)"/><path class="b" d="M271,419.834v2.336l1.669-.667v-2Z" transform="translate(-180.567 -279.529)"/><path class="b" d="M244,469.175l3-1.335V461.5l-2,.667h-1Z" transform="translate(-162.577 -307.514)"/><path class="b" d="M259,455.5v6.34l-3,1.335v-6.34Z" transform="translate(-170.572 -303.516)"/><path class="b" d="M272.336,456.507,270,457.841V451.5l2.336-1Z" transform="translate(-179.901 -300.185)"/><path class="b" d="M283,446.5v2.336l2-.667V449.5h.667v-4Z" transform="translate(-188.563 -296.853)"/><path class="b" d="M294,444.5l2,.334v3.337l-2-1.669Z" transform="translate(-195.892 -296.187)"/><rect class="b" width="2.002" height="3.337" transform="translate(94.438 137.301)"/><rect class="b" width="0.667" height="1.669" transform="translate(100.444 137.301)"/><path class="b" d="M321,407.5v3.337l2.336-1v-2Z" transform="translate(-213.882 -271.534)"/><path class="b" d="M331,410.168V408.5l1.669.334v1Z" transform="translate(-220.545 -272.2)"/><rect class="b" width="1.669" height="2.002" transform="translate(109.454 130.293)"/><path class="b" d="M349,386.169V385.5l1-1v1.335Z" transform="translate(-232.538 -256.209)"/><path class="b" d="M356,383.5v-1.668l1-.334v1.669l-1,.667Z" transform="translate(-237.202 -254.21)"/><path class="b" d="M274.335,380.835H273v2h2.67V379.5h-1.335Z" transform="translate(-181.9 -252.877)"/><path class="b" d="M283,380.167v2.67l2.67-1V379.5Z" transform="translate(-188.563 -252.877)"/><path class="b" d="M292,378.5v-1.669l4.338-1.335v2.336L292,379.171Z" transform="translate(-194.559 -250.212)"/><path class="b" d="M265,359.5l7.341,2.336h9.01V360.5Z" transform="translate(-176.569 -239.551)"/><path class="b" d="M318,362.5v4.338h8.343l.334-4.338Z" transform="translate(-211.883 -241.55)"/><path class="b" d="M347,362.839v-3.671l4-1.669v3Z" transform="translate(-231.206 -238.219)"/><path class="b" d="M347,351.167l4.672.334v2l6.007.334V350.5Z" transform="translate(-231.206 -233.555)"/><path class="b" d="M381,348.5v3.337l3.337-1.668V347.5Z" transform="translate(-253.86 -231.556)"/><path class="b" d="M232,346.5v3l9.344-2v-3Z" transform="translate(-154.581 -229.557)"/><path class="b" d="M170,375.836h1.335V373.5l-1.335.667Z" transform="translate(-113.271 -248.88)"/><path class="b" d="M158,364.5v-1.335l3-.667v2Z" transform="translate(-105.275 -241.55)"/><path class="b" d="M140.337,367.167c-.334.334,0-.667,0-.667l-3.337.334v3.337h1.669v-2Z" transform="translate(-91.283 -244.215)"/><rect class="b" width="2.002" height="3.671" transform="translate(59.065 119.281)"/><path class="b" d="M156,338.834v3.337h2v-1.335l2,.334V338.5Z" transform="translate(-103.943 -225.559)"/><rect class="b" width="1.335" height="3.337" transform="translate(42.714 104.265)"/><rect class="b" width="1.669" height="2.002" transform="translate(47.386 104.265)"/><rect class="b" width="1.669" height="2.67" transform="translate(54.06 103.597)"/><rect class="b" width="1.669" height="2.336" transform="translate(61.401 102.596)"/><rect class="b" width="1.335" height="2.336" transform="translate(65.739 102.262)"/><path class="b" d="M207,305.834v2h1.335V305.5Z" transform="translate(-137.924 -203.571)"/><path class="b" d="M217,332.834v2.67l2.336-.334V332.5Z" transform="translate(-144.587 -221.561)"/><path class="b" d="M226,330.834v2.67l2.67-.334V330.5Z" transform="translate(-150.583 -220.229)"/><rect class="b" width="4.004" height="4.004" transform="translate(5.84 72.73)"/><rect class="b" width="3.337" height="4.004" transform="translate(11.179 72.73)"/><rect class="b" width="1.335" height="2.336" transform="translate(12.848 65.055)"/><path class="b" d="M51.5,195v2.67h2.67l-1-2.67Z" transform="translate(-34.314 -129.945)"/><path class="b" d="M60.5,195v1h1v1h1v-2Z" transform="translate(-40.311 -129.945)"/><rect class="b" width="1.335" height="2.336" transform="translate(17.853 61.05)"/><rect class="b" width="1.335" height="2.002" transform="translate(18.187 70.728)"/><rect class="b" width="2.336" height="2.002" transform="translate(20.523 70.728)"/><path class="b" d="M72.5,219v3s2.336.334,2.336,0,1.669-1,1.669-1H78.84v-2Z" transform="translate(-48.307 -145.936)"/><path class="b" d="M93.5,217v2.336s6.34-.334,6.34-.667V216Z" transform="translate(-62.299 -143.937)"/><path class="b" d="M114.5,216v2.67l2.336.334v-3Z" transform="translate(-76.291 -143.937)"/><rect class="b" width="2.002" height="0.667" transform="translate(26.863 85.077)"/><rect class="b" width="1.001" height="1.335" transform="translate(41.546 73.397)"/><rect class="b" width="1.001" height="1.335" transform="translate(40.878 80.739)"/><rect class="b" width="0.667" height="1.335" transform="translate(37.875 80.739)"/><rect class="b" width="0.667" height="1.001" transform="translate(35.873 81.072)"/><rect class="b" width="1.335" height="0.667" transform="translate(32.87 81.406)"/><path class="b" d="M147,250.5v2.67l4,.334v-3Z" transform="translate(-97.946 -166.925)"/><rect class="b" width="2.002" height="2.336" transform="translate(45.05 83.575)"/><path class="b" d="M140,275.834v2.67h1v-3Z" transform="translate(-93.282 -183.582)"/><path class="b" d="M176,309.834l1-.334v1.669l-1,.334Z" transform="translate(-117.269 -206.236)"/><rect class="b" width="1.001" height="2.336" transform="translate(58.398 95.922)"/><rect class="b" width="1.335" height="1.669" transform="translate(62.068 96.59)"/><rect class="b" width="1.335" height="1.669" transform="translate(65.739 95.922)"/><path class="b" d="M171,265.5v-1h2.336v1.669l-1-.334v-1H172v.667Z" transform="translate(-113.937 -176.253)"/><path class="b" d="M186,264.5v2.336l2.336.334v.667H189V264.5Z" transform="translate(-123.932 -176.253)"/><path class="b" d="M199,264.5v3.337h.334l.334-1.668.667-.667h2v-.334H201Z" transform="translate(-132.593 -176.253)"/><rect class="b" width="0.667" height="1.001" transform="translate(71.412 91.918)"/><rect class="b" width="1.001" height="1.335" transform="translate(69.41 96.256)"/><rect class="b" width="1.001" height="1.335" transform="translate(70.411 86.245)"/><rect class="b" width="0.667" height="1.335" transform="translate(68.075 86.245)"/><rect class="b" width="1.001" height="1.335" transform="translate(73.414 86.245)"/><rect class="b" width="0.667" height="1.669" transform="translate(75.75 85.911)"/><rect class="b" width="1.335" height="1.001" transform="translate(69.076 80.572)"/><rect class="b" width="1.669" height="1.001" transform="translate(65.739 83.909)"/><path class="b" d="M214,237.5v2.67h.334v.667l1.335-1V237.5Z" transform="translate(-142.588 -158.263)"/><rect class="b" width="1.335" height="1.335" transform="translate(77.419 83.242)"/><rect class="b" width="1.335" height="1.669" transform="translate(87.096 78.903)"/><rect class="b" width="1.001" height="2.002" transform="translate(94.104 107.935)"/><rect class="b" width="0.667" height="2.002" transform="translate(95.772 107.602)"/><rect class="b" width="2.002" height="2.336" transform="translate(96.106 95.588)"/><rect class="b" width="1.335" height="1.335" transform="translate(101.112 96.256)"/><rect class="b" width="1.001" height="3.003" transform="translate(100.778 87.913)"/><rect class="b" width="1.669" height="1.335" transform="translate(96.44 91.584)"/><rect class="b" width="1.001" height="1.669" transform="translate(109.788 95.922)"/><rect class="b" width="1.335" height="1.335" transform="translate(114.126 95.588)"/><rect class="b" width="1.001" height="3.003" transform="translate(113.125 89.916)"/><rect class="b" width="1.669" height="2.002" transform="translate(110.121 90.583)"/><rect class="b" width="1.669" height="2.002" transform="translate(126.807 98.592)"/><rect class="b" width="1.669" height="1.669" transform="translate(131.478 98.592)"/><rect class="b" width="1.669" height="2.002" transform="translate(131.145 93.253)"/><rect class="b" width="1.001" height="1.335" transform="translate(134.482 93.253)"/><rect class="b" width="1.669" height="2.336" transform="translate(127.14 93.253)"/><rect class="b" width="1.001" height="1.335" transform="translate(123.47 92.919)"/><path class="b" d="M361,260.834l1-.334v1.669h-1Z" transform="translate(-240.534 -173.588)"/><rect class="b" width="1.335" height="2.002" transform="translate(129.81 86.245)"/><rect class="b" width="2.336" height="1.335" transform="translate(100.11 82.908)"/><rect class="b" width="1.335" height="1.335" transform="translate(107.118 77.902)"/><rect class="b" width="1.001" height="1.669" transform="translate(111.123 77.902)"/><rect class="b" width="1.001" height="1.669" transform="translate(112.124 74.565)"/><rect class="b" width="1.001" height="1.669" transform="translate(114.46 74.565)"/><rect class="b" width="1.335" height="2.002" transform="translate(94.771 74.232)"/><rect class="b" width="1.335" height="1.669" transform="translate(92.769 74.232)"/><rect class="b" width="1.001" height="2.002" transform="translate(91.1 73.898)"/><rect class="b" width="0.667" height="2.002" transform="translate(89.432 73.898)"/><rect class="b" width="1.335" height="1.335" transform="translate(87.43 74.565)"/><rect class="b" width="0.667" height="2.002" transform="translate(86.095 73.898)"/><rect class="b" width="0.667" height="1.335" transform="translate(85.428 69.56)"/><rect class="b" width="1.335" height="1.335" transform="translate(88.097 70.227)"/><rect class="b" width="1.001" height="2.67" transform="translate(92.435 70.227)"/><rect class="b" width="0.667" height="0.667" transform="translate(113.458 87.246)"/><rect class="b" width="2.336" height="1.001" transform="translate(66.073 77.235)"/><rect class="b" width="1.669" height="1.001" transform="translate(63.737 77.235)"/><rect class="b" width="1.335" height="1.335" transform="translate(67.408 65.889)"/><rect class="b" width="1.001" height="1.001" transform="translate(71.412 65.889)"/><rect class="b" width="1.335" height="1.335" transform="translate(64.071 65.889)"/><path class="b" d="M126,195.5v2.336s3.337,0,3.337-.334v-2Z" transform="translate(-83.954 -130.278)"/><path class="b" d="M138,193.5v2.336h.667l2.67-1V193.5Z" transform="translate(-91.949 -128.946)"/><path class="b" d="M151,194.5v.334c0,.334,2,0,2,0V194.5Z" transform="translate(-100.611 -129.612)"/><rect class="b" width="1.335" height="1.335" transform="translate(43.715 62.552)"/><rect class="b" width="1.335" height="1.335" transform="translate(47.052 62.552)"/><rect class="b" width="1.001" height="0.667" transform="translate(49.054 62.552)"/><rect class="b" width="2.002" height="2.002" transform="translate(33.37 44.532)"/><rect class="b" width="1.335" height="1.335" transform="translate(33.37 48.203)"/><rect class="b" width="1.669" height="1.335" transform="translate(33.704 52.207)"/><rect class="b" width="1.001" height="1.669" transform="translate(40.712 47.869)"/><rect class="b" width="1.335" height="1.335" transform="translate(42.714 51.54)"/><rect class="b" width="1.001" height="2.67" transform="translate(40.378 51.874)"/><rect class="b" width="5.006" height="2.336" transform="translate(43.047 57.546)"/><rect class="b" width="4.338" height="2.336" transform="translate(49.388 57.546)"/><path class="b" d="M164,172.5v2.67h1.669v-2Z" transform="translate(-109.273 -114.953)"/><path class="b" d="M170,175.5v1.669h.667v-1Z" transform="translate(-113.271 -116.952)"/><rect class="b" width="1.335" height="1.335" transform="translate(69.41 56.545)"/><rect class="b" width="1.001" height="1.335" transform="translate(68.743 52.875)"/><rect class="b" width="1.335" height="1.335" transform="translate(64.404 52.875)"/><rect class="b" width="1.669" height="1.669" transform="translate(59.065 52.875)"/><rect class="b" width="1.669" height="1.669" transform="translate(55.394 46.201)"/><rect class="b" width="2.336" height="1.669" transform="translate(60.734 40.528)"/><rect class="b" width="3.003" height="1.669" transform="translate(64.071 40.528)"/><rect class="b" width="1.001" height="1.001" transform="translate(60.066 46.868)"/><rect class="b" width="2.002" height="1.669" transform="translate(50.723 46.534)"/><rect class="b" width="1.669" height="1.335" transform="translate(46.718 40.194)"/></g></svg>