<svg xmlns="http://www.w3.org/2000/svg" viewBox="562.136 178.191 50.458 32.33"><defs><style>.a{fill:#fff;}</style></defs><g transform="translate(562.136 178.191)"><path class="a" d="M569.357,417.809a14.678,14.678,0,0,1-4.612-1.076,7.394,7.394,0,0,1-1.191-.692,2.417,2.417,0,0,1-.922-2.46l.115-.692a2.963,2.963,0,0,0-2-3.69,1.475,1.475,0,0,0-1.268.077,1.9,1.9,0,0,1-2.652-.384,12.047,12.047,0,0,1-2.537-3.766c-.346-.692-.346-.73-1-.346-.384.231-.961.231-1.115.615-.115.384.115.846.192,1.307a68,68,0,0,1,1.038,7.879,7.736,7.736,0,0,1-.115,2.114c-.077.384-.231.692-.73.73a81.286,81.286,0,0,1-10.146-.154c-.884-.077-1.038-.346-.5-1.076a31.775,31.775,0,0,0,2.268-3.19,12.134,12.134,0,0,0,1.614-6.918c-.038-.346-.115-.577-.5-.692a9.934,9.934,0,0,1-5.342-4.074.8.8,0,0,0-.615-.423c-5.573-.961-11.146-1.922-16.718-2.844a5.974,5.974,0,0,1-.807-.154c-1.076-.192-1.076-.192-1.076-1.268,0-1.922,0-3.843-.038-5.765,0-.538.154-.653.653-.692l7.687-.576c3.882-.307,7.763-.615,11.645-.884a1.056,1.056,0,0,0,.73-.384,9.846,9.846,0,0,1,8.917-2.652,10.179,10.179,0,0,1,4.5,17.948c-.461.384-.538.653-.269,1.153a21.394,21.394,0,0,0,1.806,3,5.237,5.237,0,0,0,.922.922,1.333,1.333,0,0,0,1.691.115,1.9,1.9,0,0,1,2.229.038,3.4,3.4,0,0,1,2.037,2.806,5.718,5.718,0,0,1-.269,1.806,1.918,1.918,0,0,0,.884,2.191,10.339,10.339,0,0,0,5.8,1.5c.576,0,.884-.384.961-.961.038-.231,0-.5.346-.423.307.077.154.346.115.538a1.643,1.643,0,0,1-.922,1.307A1.9,1.9,0,0,1,569.357,417.809Zm-26.865-22.176a6.069,6.069,0,0,0,5.919,6.265,6.171,6.171,0,0,0,6.3-5.88,6.114,6.114,0,1,0-12.222-.384Z" transform="translate(-520.7 -385.479)"/><path class="a" d="M584.634,408v1.038c0,.115,0,.231-.154.231s-.154-.115-.154-.269c0-.653,0-1.307.038-1.96,0-.231,0-.384-.307-.461s-.423.038-.5.307c-.231.615-.461,1.23-.692,1.806-.038.115-.077.269-.269.192-.154-.077-.077-.192-.038-.307.231-.615.461-1.23.692-1.806.115-.269.077-.384-.192-.538-.231-.154-.346-.115-.5.115-.423.5-.846,1-1.268,1.46-.077.077-.154.269-.307.115s0-.231.077-.307c.423-.5.807-.961,1.23-1.422.192-.192.192-.346,0-.577a.364.364,0,0,0-.576-.077c-.538.307-1.115.615-1.653.922-.115.038-.231.192-.346-.038-.077-.154.077-.192.154-.269.538-.307,1.115-.615,1.653-.922.154-.077.384-.115.231-.423-.115-.231-.154-.461-.5-.384-.615.115-1.191.192-1.806.307-.115.038-.346.115-.346-.115,0-.192.154-.154.307-.192.615-.115,1.191-.231,1.806-.307.307-.038.346-.154.307-.423-.038-.192.038-.384-.269-.423-.576-.077-1.153-.231-1.729-.346-.154-.038-.423.038-.346-.231.077-.231.307-.077.423-.077.5.077.961.192,1.46.269.231.038.5.231.653-.192.115-.384,0-.5-.307-.653l-1.384-.807c-.115-.077-.269-.115-.192-.307.115-.231.269-.038.384.038.5.269,1,.577,1.5.884.231.154.346.154.5-.077.154-.192.307-.346.077-.615-.384-.423-.73-.884-1.115-1.345-.077-.115-.269-.231-.038-.384.192-.115.231.077.307.154.346.423.73.846,1.038,1.307.154.192.269.307.538.154s.384-.269.231-.615c-.192-.461-.346-.961-.5-1.46-.038-.115-.192-.307.038-.384s.231.154.269.269c.192.5.346,1,.5,1.537.077.231.154.384.423.269.231-.077.5,0,.461-.423a13,13,0,0,1,.038-1.729c0-.115,0-.307.192-.307s.154.192.154.307a10.276,10.276,0,0,1-.038,1.537c-.038.384.115.5.461.576.384.115.384-.192.461-.384.192-.5.384-.961.576-1.46.038-.115.077-.346.269-.269.154.077.077.231.038.346-.192.5-.384,1.038-.615,1.537-.154.307,0,.423.231.576.269.192.384.115.538-.115a9.7,9.7,0,0,1,1.038-1.153c.115-.115.154-.461.423-.231.231.192-.077.307-.192.461a9.026,9.026,0,0,1-1,1.115c-.269.269-.192.423,0,.692s.346.192.577.038c.5-.269,1-.538,1.5-.846.115-.077.231-.154.346.038.077.154-.077.192-.154.231a12.427,12.427,0,0,1-1.576.846c-.307.154-.269.307-.192.576.077.346.269.307.5.269.5-.077,1.038-.154,1.537-.231.154-.038.423-.231.5.038.077.346-.307.231-.461.231a11.4,11.4,0,0,1-1.653.269c-.384.038-.269.269-.307.5-.038.269.077.307.307.346l1.845.346c.154.038.269.038.231.231-.038.154-.192.115-.269.077-.615-.115-1.191-.231-1.806-.346-.346-.077-.461.077-.576.346-.154.307.077.346.269.461.538.307,1.038.615,1.576.961.115.077.269.077.154.269s-.231.038-.346,0c-.576-.346-1.115-.653-1.691-1-.231-.154-.346-.038-.5.115-.192.192-.231.307-.038.5.384.461.769.922,1.115,1.384.115.115.384.269.154.461-.192.154-.269-.115-.384-.231-.384-.461-.769-.922-1.115-1.384-.192-.231-.307-.231-.576-.115-.307.154-.269.307-.154.538.231.576.423,1.191.615,1.806.038.115.115.269-.077.346s-.192-.115-.231-.231c-.231-.615-.423-1.23-.653-1.845-.077-.231-.154-.346-.423-.269-.269.038-.423.077-.384.423,0,.461-.038.807-.038,1.115Z" transform="translate(-556.655 -393.311)"/></g></svg>