<svg xmlns="http://www.w3.org/2000/svg" viewBox="566.335 242.22 41.373 40.239"><defs><style>.a{fill:#fff;}</style></defs><g transform="translate(566.285 242.17)"><path class="a" d="M672.511,207.9a5.586,5.586,0,0,1-4.211,3.808,9.852,9.852,0,0,1,3.853,1.357,4.29,4.29,0,0,1,1.267-2.461,4.484,4.484,0,0,1,1.941-1.162,14.49,14.49,0,0,0-2.838-1.535C672.517,207.9,672.514,207.9,672.511,207.9Z" transform="translate(-646.918 -201.215)"/><path class="a" d="M338.3,883.986a14.494,14.494,0,0,0,3.729,2.206l.1.038a5.593,5.593,0,0,1,3.725-3.9,9.829,9.829,0,0,1-4.236-1.826,3.95,3.95,0,0,1-3.317,3.486Z" transform="translate(-327.452 -852.344)"/><path class="a" d="M817.323,281.392a6.164,6.164,0,0,1,1.443-1.073,14.587,14.587,0,0,0-2.516-3.361,14.363,14.363,0,0,0-1.165-1.047,3.1,3.1,0,0,0-2.334.98,3.009,3.009,0,0,0-.958,2.528,9.7,9.7,0,0,1,1.069.926,9.8,9.8,0,0,1,2.672,4.929A6.165,6.165,0,0,1,817.323,281.392Z" transform="translate(-785.802 -267.049)"/><path class="a" d="M686.469,832.324c-.153.176-.313.351-.482.517a9.79,9.79,0,0,1-5.286,2.739,5.593,5.593,0,0,1,3.725,3.9l.1-.038a14.555,14.555,0,0,0,4.849-3.218c.281-.281.552-.574.808-.875a3.018,3.018,0,0,0-.942-2.2A2.779,2.779,0,0,0,686.469,832.324Z" transform="translate(-658.922 -805.598)"/><path class="a" d="M205.388,363.4a9.8,9.8,0,0,1,1.545-3.863,3.966,3.966,0,0,1-2.353-1.175,4.014,4.014,0,0,1-1.149-2.158,14.378,14.378,0,0,0-1.9,3.339c-.013.029-.022.054-.032.083a5.582,5.582,0,0,1,3.888,3.773Z" transform="translate(-195.019 -344.781)"/><path class="a" d="M203.312,686.711a5.567,5.567,0,0,1-2.512,1.449c.016.042.032.083.051.125a14.555,14.555,0,0,0,3.218,4.849c.067.067.137.137.208.2a2.841,2.841,0,0,0,3.422-3.355c-.083-.077-.163-.153-.243-.233a9.816,9.816,0,0,1-2.752-5.35A5.534,5.534,0,0,1,203.312,686.711Z" transform="translate(-194.342 -662.504)"/><path class="a" d="M883.743,637.2A9.832,9.832,0,0,1,882,642.688a4.06,4.06,0,0,1,2.563,1.229,4.264,4.264,0,0,1,1.111,1.864,14.5,14.5,0,0,0,1.791-3.192c.156-.383.294-.773.415-1.165a6.166,6.166,0,0,1-4.137-4.223Z" transform="translate(-853.796 -616.81)"/><path class="a" d="M286.814,211.916c.2-.239.409-.472.632-.7a9.83,9.83,0,0,1,5.887-2.825A5.59,5.59,0,0,1,289.2,204.5l-.294.115a14.554,14.554,0,0,0-4.849,3.218q-.278.278-.536.565a2.724,2.724,0,0,0,.82,2.65A2.8,2.8,0,0,0,286.814,211.916Z" transform="translate(-274.334 -197.923)"/><path class="a" d="M951.018,412.917a5.532,5.532,0,1,0,1.283-.958A5.549,5.549,0,0,0,951.018,412.917Z" transform="translate(-919.044 -398.12)"/><path class="a" d="M473.784,951.1a4.962,4.962,0,1,0,7.02,0A4.934,4.934,0,0,0,473.784,951.1Z" transform="translate(-457.206 -919.286)"/><path class="a" d="M6.238,487.078a4.963,4.963,0,1,0-4.737-1.3A4.922,4.922,0,0,0,6.238,487.078Z" transform="translate(0 -462.022)"/><path class="a" d="M485.8,8.521a4.893,4.893,0,0,0,1.235-2.062A4.961,4.961,0,1,0,485.8,8.521Z" transform="translate(-462.047)"/></g></svg>