<svg xmlns="http://www.w3.org/2000/svg" viewBox="559.507 315.075 48 28.916"><defs><style>.a{fill:#fff;}</style></defs><g transform="translate(-54 -82)"><g transform="translate(613.507 397.075)"><path class="a" d="M75.692,421.931h0V417.3h0c.044-.175-.044-.219-.219-.219H71.016c-.175-.044-.262,0-.219.175H70.36c-.131-.044-.262,0-.219.175h-.219c-.175-.044-.262,0-.219.175h0v-.044h-.437c-.131,0-.262,0-.219.175v.044h-.262c-.175-.044-.262,0-.219.175H68.35c-.175-.044-.262,0-.219.175h-.437c-.131-.044-.262,0-.219.175v.044h-.262c-.175-.044-.262,0-.219.175h0v-.044h-.219c-.175-.044-.262,0-.219.175h-.437c-.131-.044-.262,0-.219.175h-.219c-.175-.044-.262,0-.219.175h0v-.044h-.437c-.131,0-.262,0-.219.175v.044h-.262c-.175-.044-.262,0-.219.175H64.11c-.175-.044-.262,0-.219.175h-.437c-.175-.044-.262,0-.219.175h-.656c-.175-.044-.262,0-.219.175H58.6c.044-.175-.044-.219-.219-.219h-.656c.044-.175-.044-.219-.219-.219h-.437c.044-.175-.044-.219-.219-.175h-.437c.044-.175-.044-.219-.219-.175h-.219c.044-.175-.044-.219-.219-.175h-.437v.044h0c.044-.175-.044-.219-.219-.175H54.67c.044-.175-.044-.219-.219-.175h-.219c.044-.175-.044-.218-.219-.175h-.437c.044-.175-.044-.219-.219-.175H53.14c.044-.175-.044-.219-.219-.175h-.437v.044h0c.044-.175-.044-.219-.219-.175h-.219c.044-.175-.044-.219-.219-.175h-.437v.044h0c.044-.175-.044-.219-.219-.175h-.437c.044-.175-.044-.219-.219-.175H50.3c.044-.175-.044-.219-.219-.175h-.437v.044h0c.044-.175-.044-.219-.219-.175H45.4c-.175-.044-.262.044-.219.218v5.288c-.044.175.044.262.219.219h0v.437c-.044.131,0,.262.175.219h.044v.218c-.044.175,0,.262.175.219h.044v.044h0v.219c-.044.131,0,.218.175.218h0c0,.131.044.219.219.219h0c0,.131.044.219.219.219h0c0,.131.044.219.219.219h-.044c-.044.175.044.219.219.219-.044.175.087.219.219.219-.044.175.087.219.219.175H47.5c-.044.175.044.219.219.175h.219c-.044.175.044.219.219.175h.219c-.044.175.044.219.219.175h.219c-.044.175.044.219.219.175h.437c-.044.175.044.219.219.175h.219c-.044.175.044.219.219.175h.219c-.044.175.044.219.219.175H51c-.044.175.044.219.219.175h.219c-.044.175.044.219.219.175h.219c-.044.175.044.219.219.175h.219c-.044.175.044.219.219.175h.437c-.044.175.044.219.219.175H53.4c-.044.175.044.219.219.175h.219c-.044.175.044.218.219.175H54.5c-.044.175.044.219.219.175h.219c-.044.175.044.219.219.175h.219c-.044.175.044.218.219.175h.219c-.044.175.087.219.219.175h.437c-.044.175.044.219.219.175H56.9c-.044.175.044.219.219.175h.219c-.044.175.044.218.219.175h.437c-.044.175.044.219.219.175h.656c-.044.175.044.219.219.175h2.4c.175.044.262,0,.219-.175h.656c.175.044.262,0,.219-.175h.437c.131.044.262,0,.219-.175h.219c.175.044.262,0,.219-.175h.219c.175.044.262,0,.219-.175h.437c.131.044.262,0,.219-.175h.219c.175.044.262,0,.219-.175h.219c.175.044.262,0,.219-.175h.437c.131.044.262,0,.219-.175h.219c.175.044.262,0,.219-.175h.219c.175.044.262,0,.219-.175h.437c.131.044.262,0,.219-.175h.219c.175.044.262,0,.219-.175h.219c.175.044.262,0,.219-.175h.437c.131,0,.262,0,.219-.175h.219c.175.044.262,0,.219-.175h.219c.175.044.262,0,.219-.175h.219c.175.044.262,0,.219-.175H71.1c.131.044.262,0,.219-.175h.219c.175.044.262,0,.219-.175h.219c.175.044.262,0,.219-.175h.437c.131.044.262,0,.219-.175h.219c.131.044.262,0,.219-.175.131,0,.262-.044.219-.218h.219c.131.044.219,0,.219-.175a.206.206,0,0,0,.219-.219h0c.175.044.219-.087.219-.219h0c.175,0,.219-.087.175-.219v-.219h-.044l.044.044c.175.044.219-.087.219-.219h0c.175.044.219-.044.175-.219v-.219h0c.175.044.219-.044.175-.219v-.219h.044c.175.044.219-.044.175-.219h0v-.874h0c.306-.175.35-.262.35-.393Zm-28.8,2.1Zm5.725-5.9Zm.219,0ZM64.9,429.1Zm1.486-.612Zm1.486-.656Zm1.486-.612Zm3.8-1.7Zm.612-.437Z" transform="translate(-36.226 -400.854)"/><path class="a" d="M72.6,404.636h0V404.2h0c.044-.175-.044-.219-.219-.219h0v-.437h0c.044-.175-.044-.262-.219-.219h0v-.656h0c.044-.131-.044-.262-.219-.219v-.219h0v-.219c.044-.175-.044-.219-.219-.219h0v-.437h0c.044-.175-.044-.219-.219-.219h0V388.814c.175.044.219-.087.219-.219h0c.175,0,.219-.087.175-.219h0v-.437c.044-.131,0-.219-.175-.219,0-.175-.044-.219-.219-.219h0c.044-.175-.044-.219-.219-.219h-.219c0-.175-.044-.219-.219-.219h-.437c.044-.175-.044-.219-.219-.219h-.219c0-.175-.044-.219-.219-.219h-.437c0-.175-.044-.219-.219-.219h-.437c0-.175-.044-.218-.219-.218h-.437c0-.175-.044-.219-.219-.219h-.437c.044-.175-.044-.219-.219-.219H66.92c.044-.175-.044-.219-.219-.175h-.437c0-.175-.044-.219-.219-.219h-.437c0-.175-.044-.219-.219-.219h-.437c0-.175-.044-.219-.219-.219H64.3c.044-.175-.044-.219-.219-.219H63.86c.044-.175-.044-.219-.219-.175H63.2c0-.175-.044-.219-.219-.219h-.437c0-.175-.044-.219-.219-.219h-.437c0-.175-.044-.219-.219-.219h-.437c0-.175-.044-.219-.219-.219h-.437c.044-.175-.044-.219-.219-.219h-.219c0-.175-.044-.219-.219-.219H59.49c0-.175-.044-.219-.219-.219h-.437c0-.175-.044-.219-.219-.219h-.437c0-.175-.044-.219-.219-.219h-.437c.044-.175-.044-.219-.219-.219h-.219c0-.175-.044-.218-.219-.218H56.43c0-.175-.044-.219-.219-.219h-.437c0-.175-.044-.219-.219-.219h-.437c0-.175-.044-.219-.219-.219h-.437c.044-.175-.044-.219-.219-.219h-.219c.044-.175-.044-.219-.219-.175h-.437c0-.175-.044-.218-.219-.218h-.437c0-.175-.044-.219-.219-.219H52.06c0-.175-.044-.219-.219-.219H51.4c0-.175-.044-.219-.219-.219H50.53c0-.175-.044-.219-.219-.219H47.252c-.175-.044-.219.044-.219.219h-.656c-.175-.044-.219.044-.219.219h-.219c-.175-.044-.262.044-.219.219h-.437c-.175-.044-.262.044-.219.219H44.63c-.175-.044-.219.044-.219.218h-.219c-.175-.044-.262.044-.219.219h-.437c-.175-.044-.219.044-.219.219h-.437c-.175-.044-.219.044-.219.219h-.219c-.175-.044-.262.044-.219.219h-.437c-.175-.044-.219.044-.219.219h-.437c-.175-.044-.219.044-.219.219H40.7c-.175-.044-.262.044-.219.219h-.437c-.175-.044-.219.044-.219.219h-.437c-.175-.044-.219.044-.219.218h-.219c-.175-.044-.262.044-.219.219h-.437c-.175-.044-.219.044-.219.219h-.437c-.175-.044-.219.044-.219.219H37.2c-.175-.044-.262.044-.219.218h-.437c-.175-.044-.219.044-.219.219h-.437c-.131-.044-.262,0-.219.175h-.262c-.175-.044-.262.044-.219.219h-.437c-.175-.044-.219.044-.219.219H34.1c-.131-.044-.262,0-.219.175h-.262c-.175-.044-.262.044-.219.219H32.96c-.175-.044-.219.044-.219.219H32.3c-.131-.044-.262,0-.219.175h-.262c-.175-.044-.262.044-.219.219h-.437c-.175-.044-.219.044-.219.219h-.437c-.131-.044-.262,0-.219.175v.044h-.262c-.175-.044-.262.044-.219.218h-.437c-.175-.044-.219.044-.219.219h-.437c-.131-.044-.262,0-.219.175H28.24c-.175-.044-.262.044-.219.219h-.437c-.175-.044-.219.044-.219.219h-.437c-.131-.044-.262,0-.219.175v.044h-.262c-.175-.044-.262.044-.219.218h-.219c-.175-.044-.262.044-.219.219h-.219c-.175-.044-.262.044-.219.219h-.219c-.175-.044-.262.044-.219.219v.218h0c-.131,0-.219.044-.219.219s.044.262.219.219h0v.219c-.044.175.044.262.219.219h.219c0,.175.044.219.219.219h.219c-.044.175.044.219.219.219h.219c0,.175.044.219.219.219h.437c-.044.175.044.219.219.219h.219c0,.175.044.218.219.218h.437c0,.175.044.219.219.219h.219c-.044.175.044.219.219.175h.437c0,.175.044.219.219.219h.437c-.044.175.044.219.219.219h.219c0,.175.044.219.219.219h.437c0,.175.044.219.219.219h.219c-.044.175.044.219.219.175h.437c0,.175.044.219.219.219h.437c-.044.175.044.219.219.219H33c0,.175.044.218.219.218h.437c0,.175.044.219.219.219H34.1c-.044.175.044.219.219.175h.437c0,.175.044.219.219.219h.437c-.044.175.044.219.219.219h.219c0,.175.044.219.219.219H36.5c0,.175.044.218.219.218h.219c0,.175.044.219.219.219h.437c0,.175.044.219.219.219h.437c-.044.175.044.219.219.219h.219c0,.175.044.218.219.218h.437c-.044.175.044.219.219.219h.219c0,.175.044.219.219.219h.437c0,.175.044.219.219.219h.437c-.044.175.044.219.219.219h.219c0,.175.044.219.219.219h.437c-.044.175.044.219.219.219h.219c0,.175.044.219.219.219h.437c0,.175.044.219.219.219h.437c-.044.175.044.218.219.218h.219c0,.175.044.219.219.219h.437c-.044.175.044.219.219.219h.219c0,.175.044.219.219.219h.437c0,.175.044.219.219.219h.874c-.044.175.044.219.219.219h1.748c.175.044.219-.044.219-.219h.874c.175.044.262-.044.219-.219h.437c.175.044.262-.044.219-.219h.437c.175.044.262-.044.219-.219h.219c.175.044.262-.044.219-.219h.437c.131.044.262,0,.219-.175h.219c.175.044.262-.044.219-.219h.219c.175.044.262-.044.219-.219H54.2c.131.044.262,0,.219-.175h.219c.175.044.262-.044.219-.219h.219c.175.044.262-.044.219-.219h.437c.175.044.262-.044.219-.219h.219c.175.044.262-.044.219-.219h.437c.131,0,.262,0,.219-.175h.219c.175.044.262-.044.219-.219H57.7c.175.044.262-.044.219-.219h.437c.131.044.262,0,.219-.175h.219c.175.044.262-.044.219-.219h.219c.175.044.262-.044.219-.218h.437c.175.044.262-.044.219-.219h.219c.175.044.262-.044.219-.219h.437c.131,0,.262,0,.219-.175h.219c.175.044.262-.044.219-.219h.219c.175.044.262-.044.219-.219h.437c.131.044.262,0,.219-.175h.219c.175.044.262-.044.219-.219h.219c.175.044.262-.044.219-.219h.437c.175.044.262-.044.219-.219h.219c.175.044.262-.044.219-.219h.219c.175.044.262,0,.219-.219h.437c.175.044.262-.044.219-.219H66c.175.044.262-.044.219-.219h.437c.131.044.262,0,.219-.175h.219c.175.044.262-.044.219-.219h.219c.175.044.262-.044.219-.218h.437c.175.044.262-.044.219-.219h.219c.175.044.262-.044.219-.219h.219c.175.044.262,0,.219-.219h.656v-.175h.175V401.1h-.131v.656h0c-.175,0-.219.044-.219.219v.437h0c-.175,0-.219.044-.219.219v.656h0c-.175,0-.219.044-.219.219v.437h0c-.175,0-.219.044-.219.219v.437h0c-.175,0-.219.044-.219.219-.044.175.044.219.219.219h3.147c.087,0,.219.044.219-.087C72.82,404.592,72.689,404.636,72.6,404.636Zm-3.147,0Z" transform="translate(-24.7 -379.975)"/></g></g></svg>