<svg xmlns="http://www.w3.org/2000/svg" viewBox="2379.373 5533.755 34.087 34.09"><path d="M468.187,698a6.029,6.029,0,0,0-3.942-5.6,5.4,5.4,0,0,0-1.807-.315c-7.533,0-15.078-.012-22.612.012a5.942,5.942,0,0,0-5.653,4.816c-.012.061.012.158-.073.182v24.067a5.075,5.075,0,0,1,.243.837,6.03,6.03,0,0,0,2.56,3.3,5.828,5.828,0,0,0,1.977.789c.061.012.158-.012.182.085h24.067c.291-.133.619-.146.922-.255a5.936,5.936,0,0,0,3.251-2.535,5.86,5.86,0,0,0,.886-3.251Q468.151,709.061,468.187,698Zm-5.641,2.232c-.352.3-.619.546-.886.776q-5,4.294-10.02,8.589c-.158.133-.267.243-.485.049q-5.331-4.6-10.687-9.183a3.25,3.25,0,0,1-.243-.23Zm-23.558,16.377c-.036.036-.061.1-.17.073V701.443c1.274,1.092,2.438,2.086,3.6,3.081,1.274,1.092,2.547,2.184,3.821,3.263.158.133.279.231.073.461Q442.64,712.415,438.989,716.607Zm23.631,1.468c-.049.146-.218.1-.328.121a3.579,3.579,0,0,1-.509.024H440.99c-.279,0-.7.073-.8-.121-.109-.23.267-.437.449-.643,2.3-2.657,4.634-5.3,6.939-7.958.218-.255.34-.315.619-.061.813.74,1.65,1.431,2.487,2.135a.955.955,0,0,0,1.407,0c.861-.728,1.71-1.444,2.547-2.2.23-.206.328-.146.5.048l7.315,8.37C462.51,717.892,462.643,717.965,462.619,718.074Zm1.31-1.3c-.473-.534-.886-1.007-1.3-1.48-2.05-2.341-4.088-4.682-6.15-7.012-.17-.194-.23-.291.012-.5,2.378-2.026,4.743-4.064,7.121-6.09.073-.061.158-.121.315-.243Z" transform="translate(1945.273 4841.68)"/></svg>