<svg xmlns="http://www.w3.org/2000/svg" viewBox="561.136 383.363 45.029 30.948"><defs><style>.a{fill:#fff;}</style></defs><g transform="translate(-45.029 126.021)"><path class="a" d="M97.961,48.77h0a2.052,2.052,0,0,0,2.061-2.061V20.761A2.052,2.052,0,0,0,97.961,18.7h0A2.052,2.052,0,0,0,95.9,20.761V46.709A2.077,2.077,0,0,0,97.961,48.77Z" transform="translate(542.739 239.519)"/><path class="a" d="M110.561,53.625h0a2.052,2.052,0,0,0,2.061-2.061v-19a2.052,2.052,0,0,0-2.061-2.061h0a2.052,2.052,0,0,0-2.061,2.061v19A2.077,2.077,0,0,0,110.561,53.625Z" transform="translate(534.947 232.222)"/><path class="a" d="M37.661,46.47h0A2.052,2.052,0,0,1,35.6,44.409V18.461A2.052,2.052,0,0,1,37.661,16.4h0a2.052,2.052,0,0,1,2.061,2.061V44.409A2.077,2.077,0,0,1,37.661,46.47Z" transform="translate(580.029 240.941)"/><rect class="a" width="17.859" height="5.152" transform="translate(620.246 270.812)"/><path class="a" d="M10.8,54.295a2.6,2.6,0,0,0,2.595,2.595h1.565V51.7H13.395A2.573,2.573,0,0,0,10.8,54.295Z" transform="translate(595.365 219.112)"/><path class="a" d="M121.134,51.7H120.6v5.152h.534a2.6,2.6,0,0,0,2.595-2.595A2.565,2.565,0,0,0,121.134,51.7Z" transform="translate(527.464 219.112)"/><path class="a" d="M25.061,51.425h0A2.052,2.052,0,0,1,23,49.364v-19A2.052,2.052,0,0,1,25.061,28.3h0a2.052,2.052,0,0,1,2.061,2.061v19A2.1,2.1,0,0,1,25.061,51.425Z" transform="translate(587.82 233.583)"/></g></svg>