<svg xmlns="http://www.w3.org/2000/svg" viewBox="568.204 446.897 39.006 36.289"><defs><style>.a{fill:#fff;}</style></defs><g transform="translate(-177 52)"><g transform="translate(745.204 394.897)"><path class="a" d="M411.5,419.62c-.115-.5-.269-.961-.423-1.422-.077-.192-.154-.423-.231-.615a8.714,8.714,0,0,0-.73-1.307c-.115-.154-.192-.307-.307-.461a4.866,4.866,0,0,0-.807-.961l-.576-.577a6.037,6.037,0,0,0-.922-.807c-.192-.154-.384-.269-.576-.423-.307-.192-.653-.346-.961-.538a2.365,2.365,0,0,0-.884-.269c-.423-.154-.884-.269-1.307-.423a.552.552,0,0,0-.538-.115c-.615-.038-1.23-.115-1.883-.154-.192-.192-.423-.154-.653-.154a15.81,15.81,0,0,0-2.344.461c-.384.115-.769.307-1.153.423a10.492,10.492,0,0,0-5.265,5.189c-.192.461-.384.961-.538,1.422a15.031,15.031,0,0,0-.384,2.229,2.1,2.1,0,0,0-.038.692v1.922c.038.231-.038.5,0,.73v1.96c.038.231-.038.5,0,.73v1.96c.038.231,0,.5.192.692.115.538-.115,1.115.115,1.614a.445.445,0,0,0,.538.231c.538.154,1.076.307,1.576.461.154.346.5.115.73.231.461.115.961.192,1.422.307a.476.476,0,0,0,.538.115c.577.077,1.153.192,1.729.269.231.269.577-.038.846.115.231,0,.423.038.653.038.538-.077,1.038.346,1.614.115h2a.442.442,0,0,0,.653-.038,5.359,5.359,0,0,1,1.576-.115c.538-.077,1.153.115,1.653-.231.769-.154,1.537-.269,2.268-.423.384.154.653-.077.922-.231.461-.154.884-.269,1.345-.423.038-.692.192-1.384.192-2.114v-8.763a4.9,4.9,0,0,0-.038-.73A1.112,1.112,0,0,0,411.5,419.62Z" transform="translate(-381.89 -397.139)"/><path class="a" d="M401.63,383.952a7.617,7.617,0,0,0,.73,1.191,4.61,4.61,0,0,0,.423.461,3.838,3.838,0,0,0,.961.807c.231.154.461.269.692.423a5.229,5.229,0,0,0,.961.423,7.483,7.483,0,0,0,.884.231,8.4,8.4,0,0,0,1.384.115c.346-.115.73,0,1.076-.269a6.693,6.693,0,0,0,5.112-5.112c.077-.269.384-.5.115-.807-.038-.615-.077-1.268-.115-1.883a.437.437,0,0,0-.154-.538c-.192-.423-.384-.846-.576-1.307a.7.7,0,0,0-.384-.576l-.807-.922c-.038-.307-.307-.307-.5-.423-.346-.231-.73-.461-1.076-.692-.115-.269-.346-.154-.538-.231-.346-.115-.73-.192-1.076-.307-.346,0-.692-.423-1.076-.115a9.675,9.675,0,0,0-2.114.307,2.2,2.2,0,0,0-1.5.692,9.85,9.85,0,0,0-2,2,3.953,3.953,0,0,0-.846,1.384,6.488,6.488,0,0,0-.307,1.5v1.345a5.268,5.268,0,0,0,.307,1.345A7.876,7.876,0,0,0,401.63,383.952Z" transform="translate(-388.011 -374.309)"/><path class="a" d="M454.088,426.76a4,4,0,0,0-.346-1.153,1.564,1.564,0,0,0-.5-.73c-.231-.346-.461-.73-.692-1.076a1.413,1.413,0,0,0-.346-.615,6.669,6.669,0,0,0-.961-.807c-.192-.154-.384-.269-.615-.423a7.015,7.015,0,0,0-1.23-.538c-.269-.115-.577-.038-.846-.115-.461-.038-.961-.115-1.422-.154-.192-.192-.423-.154-.653-.154-.231.038-.461.077-.73.115-.73.154-.807.307-.653,1.038a3.19,3.19,0,0,1,.231.807c.115.461.231.922.307,1.422a4.8,4.8,0,0,1,.115.73c.077.576.192,1.153.231,1.729a7.947,7.947,0,0,1,.115,1.345v1.153c.038.231-.038.461,0,.73v1.96c.038.231-.038.5,0,.73v1.96c.038.231,0,.5.192.692v1.729c.461.346.73-.077,1.076-.231,1.268-.615,2.5-1.268,3.766-1.883a4.955,4.955,0,0,0,2.152-1.384c.231-.154.461-.346.653-.5a2.727,2.727,0,0,0,.192-1.115v-4.3A1.594,1.594,0,0,0,454.088,426.76Z" transform="translate(-415.18 -403.05)"/><path class="a" d="M375.756,420.238a8.331,8.331,0,0,0-.961-.154,5.553,5.553,0,0,0-1.768.192,7.24,7.24,0,0,0-5.035,4.035c-.192.384-.269.769-.423,1.153a5.645,5.645,0,0,0-.192,1.115c-.077,1.076.192,2.152.115,3.267a3.581,3.581,0,0,0,.077,1.691c.231.192.461.346.653.538.077.307.346.307.538.384.307.231.615.461.961.692a.7.7,0,0,0,.577.384c.384.231.769.461,1.191.73.115.269.346.307.576.346.346.192.692.384,1.038.538.154.384.538.269.807.384.346.154.73.346,1.076.5.077.077.154.038.192-.038a1.892,1.892,0,0,0,.077-.922v-8.84a4.384,4.384,0,0,1,.077-1,8.422,8.422,0,0,1,.423-2.421,6.555,6.555,0,0,1,.5-1.46C376.64,420.546,376.64,420.507,375.756,420.238Z" transform="translate(-367.364 -402.485)"/><path class="a" d="M442.851,405.178c.423-.038.884.115,1.23-.192a4.724,4.724,0,0,0,3.382-3.344c.077-.269.346-.5.115-.807-.077-.576-.192-1.153-.269-1.729a.386.386,0,0,0-.192-.423c-.231-.346-.461-.692-.73-1.038-.115-.154-.154-.384-.423-.384-.423-.231-.884-.5-1.307-.73-.192-.384-.577-.038-.846-.231h-1.268a1.478,1.478,0,0,0-1.345.461,5.755,5.755,0,0,0-1.883,1.845,2.029,2.029,0,0,0-.538,1.115,7.724,7.724,0,0,0-.038,1.883,3.384,3.384,0,0,0,.192.576,7.747,7.747,0,0,0,.692,1.23,2.645,2.645,0,0,0,.423.5,4.794,4.794,0,0,0,1.153.807c.231.115.5.192.73.307A3.561,3.561,0,0,0,442.851,405.178Z" transform="translate(-411.283 -387.848)"/><path class="a" d="M374.539,402.358a5.614,5.614,0,0,0,.846,1.268,4.8,4.8,0,0,0,.461.346,7.968,7.968,0,0,0,1.23.73,6.363,6.363,0,0,0,.807.231,5.153,5.153,0,0,0,1.537,0,7.6,7.6,0,0,0,1-.307,4.8,4.8,0,0,0,2.421-2.421c.115-.346.192-.653.307-1a5.155,5.155,0,0,0,0-1.537,6.364,6.364,0,0,0-.231-.807,4.954,4.954,0,0,0-.73-1.23l-.461-.461a3.321,3.321,0,0,0-1.115-.807c-.231-.154-.5-.038-.73-.154-.538-.038-1.038-.115-1.576-.154-.307-.231-.538.038-.807.154a4.756,4.756,0,0,0-3.113,3.113,2.07,2.07,0,0,0-.307.807,3.994,3.994,0,0,0,.154,1.5C374.347,401.858,374.424,402.089,374.539,402.358Z" transform="translate(-371.489 -387.641)"/></g></g></svg>