<svg xmlns="http://www.w3.org/2000/svg" viewBox="1559.451 1614 198.399 70.73"><defs><style>.a{fill:#fff;}</style></defs><g transform="translate(1491.957 1614.1)"><path class="a" d="M385.366,86.881c-1.572,0-2.839-.811-2.839-2.991l-6.541.152c-.3,6.034,4.36,8.619,9.38,8.619,5.222,0,9.177-2.89,9.177-7.555,0-4.766-2.687-6.439-6.591-7.808-4.107-1.42-4.766-2.079-4.766-3.346,0-1.014.913-1.572,2.028-1.572,1.47,0,2.332.913,2.332,2.991l6.49-.152c.253-6.084-3.955-8.619-8.772-8.619-4.766,0-9.126,2.586-9.126,7.859,0,4.36,2.941,6.49,6.591,7.656,3.853,1.268,4.766,2.079,4.766,3.194.051,1.065-.761,1.572-2.13,1.572Zm12.726,5.273H413V86.323h-7.91V82.267h7.149V76.69H405.09v-3.7H413V67.158H398.093v25Zm27.43-9.38,3.9,9.38h7.5s-2.586-6.287-4.005-9.177a4.639,4.639,0,0,0-1.775-2.13,7.007,7.007,0,0,0,4.614-6.794c0-5.831-4.969-7-11.256-7-3.752,0-7.1.051-7.1.051V92.154h7.048v-9.38Zm3.245-7.555c0,2.332-1.927,2.687-3.5,2.687a2.587,2.587,0,0,1-.761-.051V72.634a3.247,3.247,0,0,1,.963-.051c2.332,0,3.3.913,3.3,2.637Z" transform="translate(-171.19 -32.881)"/><path class="a" d="M112.3,92.154V84.042s.608.051,1.927.051c5.881,0,9.735-3.4,9.735-8.366,0-7.859-6.642-8.569-12.676-8.569-2.941,0-5.983.051-5.983.051V92.154Zm0-19.166a8.606,8.606,0,0,1,.963-.051c2.586,0,3.651,1.014,3.651,2.789,0,2.18-1.572,2.941-3.4,2.941-.761,0-1.217-.051-1.217-.051V72.989Zm22.715,9.786,3.9,9.38h7.5s-2.586-6.287-4.005-9.177a4.639,4.639,0,0,0-1.775-2.13,7.007,7.007,0,0,0,4.614-6.794c0-5.831-4.969-7-11.256-7-3.752,0-7.1.051-7.1.051V92.154h7.048v-9.38Zm3.245-7.555c0,2.332-1.927,2.687-3.5,2.687a2.587,2.587,0,0,1-.761-.051V72.634a3.247,3.247,0,0,1,.963-.051c2.282,0,3.3.913,3.3,2.637Zm10.6,16.935H163.76V86.323h-7.91V82.267H163V76.69H155.85v-3.7h7.91V67.158H148.854v25ZM185.613,75.27c.152-5.932-3.955-8.619-8.822-8.619-4.766,0-9.228,2.687-9.431,8.163-.1,2.535-.051,5.729,0,9.532.1,5.222,3.853,8.366,9.228,8.366,5.729,0,9.177-3.5,9.177-8.619l-6.49-.152c0,2.028-1.217,2.991-2.484,2.991-1.42,0-2.282-.963-2.383-2.89-.051-2.687-.1-6.49,0-8.873.051-1.775,1.065-2.687,2.383-2.687,1.369,0,2.282.963,2.282,2.991l6.541-.2Zm10.242-8.112h-7.048v25h7.048v-25Zm13.233,19.723c-1.572,0-2.839-.811-2.839-2.991l-6.49.152c-.3,6.034,4.36,8.619,9.38,8.619,5.222,0,9.177-2.89,9.177-7.555,0-4.766-2.687-6.439-6.591-7.808-4.107-1.42-4.766-2.079-4.766-3.346,0-1.014.913-1.572,2.028-1.572,1.47,0,2.332.913,2.332,2.991l6.49-.152c.253-6.084-3.955-8.619-8.772-8.619-4.766,0-9.126,2.586-9.126,7.859,0,4.36,2.941,6.49,6.591,7.656,3.853,1.268,4.766,2.079,4.766,3.194.051,1.065-.761,1.572-2.18,1.572Zm24.794,5.273h7.2l-5.729-25H224.958v1.47l-5.577,23.526h6.845l.862-4.411h5.983l.811,4.411Zm-4.208-17.442.507-3.245.507,3.245,1.318,7.4h-3.853l1.521-7.4Z" transform="translate(-37.755 -32.881)"/><path class="a" d="M112.248.458H105.2v25h7.048v-25Zm17.7,0V14.452l-.862-2.383L122.9.458h-6.084v25H123.5V12.271l1.014,2.89,5.932,10.293h6.186v-25ZM149.92,20.181c-1.572,0-2.839-.811-2.839-2.991l-6.49.152c-.3,6.034,4.36,8.619,9.38,8.619,5.222,0,9.177-2.89,9.177-7.555,0-4.766-2.687-6.439-6.591-7.808-4.107-1.42-4.766-2.079-4.766-3.346,0-1.014.913-1.572,2.028-1.572,1.47,0,2.332.913,2.332,2.991l6.49-.152c.254-6.084-3.955-8.619-8.772-8.619-4.766,0-9.126,2.586-9.126,7.859,0,4.36,2.941,6.49,6.591,7.656,3.853,1.268,4.766,2.079,4.766,3.194s-.811,1.572-2.18,1.572Zm15.718,5.273h7.048V6.289h5.577V.458H160.009V6.289h5.577V25.454Zm22.309-25H180.9v25h7.048v-25Zm8.214,25h7.048V6.289h5.577V.458H190.532V6.289h5.577V25.454Zm26.619-25c.051,2.332.051,14.805,0,16.884-.051,1.775-.913,2.839-2.383,2.839a2.531,2.531,0,0,1-2.484-2.839c-.051-2.231-.051-14.7,0-16.884h-6.743s-.1,9.532,0,17.34c.051,5.425,4.31,8.163,9.076,8.163,4.867,0,9.177-2.839,9.279-8.112.1-8.518,0-17.442,0-17.442h-6.743Zm14.7,25h7.048V6.289h5.577V.458H231.855V6.289h5.577V25.454Zm14.7-16.935c-.1,2.738-.1,6.287,0,8.822.254,5.729,4.31,8.619,9.431,8.619s9.329-2.89,9.481-8.569c.051-2.687.051-6.591,0-8.924-.2-5.577-4.31-8.518-9.481-8.518-5.121,0-9.228,2.941-9.431,8.569Zm7,9.025c-.152-2.231-.152-7.2,0-9.329a2.3,2.3,0,0,1,2.434-2.484A2.238,2.238,0,0,1,264,8.215c.1,2.332.1,7.3,0,9.329-.1,1.876-1.065,2.637-2.434,2.637-1.318,0-2.231-.761-2.383-2.637Z" transform="translate(-37.706)"/><path class="a" d="M374.9,127.9v5.831h61.654V127.9Z" transform="translate(-170.661 -63.101)"/></g></svg>