<svg xmlns="http://www.w3.org/2000/svg" viewBox="572.24 518.6 35.629 35.62"><defs><style>.a{fill:#fff;}</style></defs><path class="a" d="M33.2,11.134c-2.761,0-5.514-.008-8.274.008-.337,0-.452-.049-.444-.427.016-2.769.008-5.538.008-8.316A2.229,2.229,0,0,0,22.087,0H13.55a2.237,2.237,0,0,0-2.416,2.432c0,2.786-.008,5.563.008,8.348,0,.288-.066.362-.362.362-2.81-.008-5.612-.008-8.422-.008A2.23,2.23,0,0,0,0,13.476v8.6a2.233,2.233,0,0,0,2.4,2.408c2.769,0,5.538.008,8.316-.008.37,0,.427.107.427.444-.016,2.769-.008,5.538-.008,8.316a2.232,2.232,0,0,0,2.391,2.383H22.1a2.236,2.236,0,0,0,2.4-2.416c0-2.794.008-5.587-.008-8.389,0-.279.066-.345.345-.345q4.191.012,8.389.008a2.229,2.229,0,0,0,2.408-2.4V13.541A2.232,2.232,0,0,0,33.2,11.134Z" transform="translate(572.24 518.6)"/></svg>