<svg xmlns="http://www.w3.org/2000/svg" viewBox="573.608 587 34.493 32.22"><defs><style>.a{fill:#fff;}</style></defs><g transform="translate(-232.493 336)"><g transform="translate(806.101 251)"><path class="a" d="M562.3,48.74a.926.926,0,0,0,.291.611l2.705,2.705a.9.9,0,0,0,1.309,0,1.755,1.755,0,0,0,.233-.233l19.168-19.168c.233-.233.233-.349,0-.582-1.193-1.163-2.356-2.327-3.519-3.519-.174-.175-.262-.2-.436,0L562.678,47.925A1.334,1.334,0,0,0,562.3,48.74Z" transform="translate(-562.3 -20.119)"/><path class="a" d="M536.3,12.029a1.2,1.2,0,0,0,.931-.494c.2-.233.32-.2.495,0a11.544,11.544,0,0,0,.843.844c.2.175.233.291,0,.465a1.336,1.336,0,0,0-.494.756,1.374,1.374,0,0,0,.785,1.4,1.1,1.1,0,0,0,1.338-.262c1.513-1.512,3.054-3.025,4.567-4.567a1.114,1.114,0,0,0,0-1.716,1.109,1.109,0,0,0-1.745-.058c-.349.349-.349.349-.7,0a8.573,8.573,0,0,0-.727-.727c-.233-.175-.175-.291.029-.465a1.188,1.188,0,0,0,.436-1.309,1.278,1.278,0,0,0-.349-.524L537.177.831A1.084,1.084,0,0,0,535.49.8a.287.287,0,0,1-.407.058,7.879,7.879,0,0,0-3.636-.96,6.747,6.747,0,0,0-4.1,1.425c-.465.349-.9.7-1.338,1.076-.291.262-.262.407.116.553.785.291,1.6.524,2.385.873a16.348,16.348,0,0,1,2.3,1.338c.145.116.145.145.029.291a1.092,1.092,0,0,0,.087,1.6c1.513,1.542,3.054,3.054,4.567,4.6A1.037,1.037,0,0,0,536.3,12.029Z" transform="translate(-510.679 0.1)"/></g></g></svg>