<svg xmlns="http://www.w3.org/2000/svg" viewBox="561.958 659.45 48 27.423">
  <defs>
    <style>
      .cls-1 {
        fill: #fff;
      }

      .cls-2 {
        fill: none;
      }
    </style>
  </defs>
  <g id="transporte" transform="translate(-112 263)">
    <path id="Path_189" data-name="Path 189" class="cls-1" d="M218.7,432.2h0c0,.038.041.038.041.077h0v-.038c0-.038,0-.038-.041-.038Z" transform="translate(470.344 -15.053)"/>
    <path id="Path_198" data-name="Path 198" class="cls-2" d="M268.056,386.5h-2.507a1.312,1.312,0,0,0-1.192.5c-.205.307-.041,5.073.041,7.264h9.2C274.384,390.343,272.494,386.5,268.056,386.5Z" transform="translate(443.506 13.083)"/>
    <path id="Path_199" data-name="Path 199" class="cls-2" d="M232.081,386.5c-3.246.038-6.451,0-9.7.077A3.34,3.34,0,0,0,219.877,388c-1.479,1.883-2.959,3.728-4.438,5.611-.082.346-.041.577.082.692H233.4c0-1.806.041-5.15.082-6.3C233.478,387.077,233.232,386.5,232.081,386.5Z" transform="translate(472.29 13.083)"/>
    <g id="Group_15" data-name="Group 15" transform="translate(673.958 396.45)">
      <path id="Path_200" data-name="Path 200" class="cls-1" d="M200.231,425.7a4.622,4.622,0,1,0,4.931,4.612A4.794,4.794,0,0,0,200.231,425.7Zm0,8.071a3.274,3.274,0,1,1,3.493-3.267A3.383,3.383,0,0,1,200.231,433.771Z" transform="translate(-189.83 -407.501)"/>
      <path id="Path_201" data-name="Path 201" class="cls-1" d="M268.231,425.7a4.622,4.622,0,1,0,4.931,4.612A4.794,4.794,0,0,0,268.231,425.7Zm0,8.071a3.274,3.274,0,1,1,3.493-3.267A3.383,3.383,0,0,1,268.231,433.771Z" transform="translate(-229.888 -407.501)"/>
      <path id="Path_202" data-name="Path 202" class="cls-1" d="M229.989,387.707a3.149,3.149,0,0,0-.7-1.729c-.575-.769-2.014-1-1.972-2.075.041-2.767-2.219-3.8-4.109-5.15-4.479-.653-8.958-.192-13.437-.269-1.972-.038-4.027-.423-5.958.307-3.246,1.307-6.2,2.882-8.1,5.88a11.077,11.077,0,0,1-7.4,4.689c-1.233.269-2.424.807-3.657,1.191h0c-2.548,1.46-3.616,7.725-1.685,9.685a2.357,2.357,0,0,0,4.15-.961c1.027-2.959,3.739-4.266,7.191-3.459h0c1.685.461,2.794,1,3.205,3.113.247.077.288.154.288.231.082,2.114,1.233,2.575,2.589,2.613v.077h13.149s1.644,0,1.233-2.69c0,0,.411-3.459,5.342-3.459s5.753,3.843,5.753,3.843.288,2.306,1.561,2.306a2.289,2.289,0,0,0,2.548-2.421V387.707Zm-16.272,1.537H195.841c-.123-.115-.164-.307-.082-.692,1.479-1.883,3-3.728,4.438-5.611a3.412,3.412,0,0,1,2.507-1.422c3.246-.077,6.451-.038,9.7-.077,1.151,0,1.356.577,1.356,1.5C213.758,384.133,213.716,387.477,213.716,389.245Zm11.424,0h-9.164c-.123-2.191-.288-6.956-.041-7.264a1.274,1.274,0,0,1,1.192-.5h2.507C224.031,381.481,225.921,385.325,225.14,389.245Z" transform="translate(-181.989 -378.348)"/>
    </g>
  </g>
</svg>
