<svg xmlns="http://www.w3.org/2000/svg" viewBox="2327.805 5449.8 34.099 34.089"><path d="M43.1,5.918a6.029,6.029,0,0,0-3.942-5.6A5.4,5.4,0,0,0,37.349,0Q26.031-.02,14.726,0A5.658,5.658,0,0,0,9.861,2.8a5.679,5.679,0,0,0-.788,2.014c-.012.061.012.158-.073.182V29.064a5.074,5.074,0,0,1,.243.837,6.03,6.03,0,0,0,2.56,3.3,5.83,5.83,0,0,0,1.977.788c.061.012.158-.012.182.085H38.029c.291-.133.619-.146.922-.255A5.935,5.935,0,0,0,42.2,31.284a5.861,5.861,0,0,0,.886-3.251C43.075,20.669,43.063,13.294,43.1,5.918Zm-5.786,5.143a2.118,2.118,0,0,0-.91,1.892,15.172,15.172,0,0,1-12.81,14.7A15.4,15.4,0,0,1,13.282,25.7c-.1-.049-.218-.073-.267-.279a10.965,10.965,0,0,0,7.715-2.2,5.534,5.534,0,0,1-4.961-3.736,6.833,6.833,0,0,0,2.22-.133,5.569,5.569,0,0,1-4.149-5.35,5.817,5.817,0,0,0,2.232.619c-.049-.23-.243-.291-.364-.4a5.493,5.493,0,0,1-1.262-6.381c.17-.352.267-.364.522-.061a15.151,15.151,0,0,0,9.426,5.168c.388.061.873.243,1.165.085.388-.206.024-.7.036-1.08A5.22,5.22,0,0,1,28.725,7a5.171,5.171,0,0,1,5.847.825.964.964,0,0,0,.97.218,12.8,12.8,0,0,0,2.8-1.152,5.349,5.349,0,0,1-2.086,2.839,9.492,9.492,0,0,0,2.681-.57A5.993,5.993,0,0,1,37.313,11.062Z" transform="translate(2318.805 5449.815)"/></svg>