<svg xmlns="http://www.w3.org/2000/svg" viewBox="956 1032.802 259 180.698"><defs><style>.a{fill:#2e3192;}.b{fill:#fcaf17;}.c{fill:#f26522;}</style></defs><g transform="translate(956.055 1032.702)"><g transform="translate(-0.055 0.1)"><path class="a" d="M250.145,136.971A12.986,12.986,0,1,0,237.2,124.026,12.943,12.943,0,0,0,250.145,136.971Z" transform="translate(-140.621 -65.856)"/><path class="a" d="M342.509,299.3a13.091,13.091,0,0,0-12.009,7.979h23.895A13.136,13.136,0,0,0,342.509,299.3Z" transform="translate(-195.941 -177.505)"/><path class="a" d="M510.626,325.471A12.986,12.986,0,1,0,497.6,312.526,12.943,12.943,0,0,0,510.626,325.471Z" transform="translate(-295.019 -177.623)"/><path class="a" d="M563.239,126a6.859,6.859,0,1,0,6.88,6.879A6.836,6.836,0,0,0,563.239,126Z" transform="translate(-329.884 -74.75)"/><path class="a" d="M175.17,32.91a10.636,10.636,0,0,0-.733-3.949,19.546,19.546,0,0,0,2.2-9.078A19.783,19.783,0,0,0,137.8,14.551c-.244,0-.529-.041-.773-.041H122.5a11.08,11.08,0,0,0-9.444,5.292,34.631,34.631,0,0,0-3.582-.163,38.4,38.4,0,0,0-21.819,6.8,9.318,9.318,0,0,0-1.75-1.3L73.362,17.4a10.927,10.927,0,0,0-5.821-1.669A11.1,11.1,0,0,0,58.1,20.983L45.559,41.3,33.021,20.983a11.043,11.043,0,0,0-9.444-5.292,10.927,10.927,0,0,0-5.821,1.669L5.219,25.094a11.224,11.224,0,0,0-4.966,6.92A11.022,11.022,0,0,0,1.6,40.4L35.871,95.843,26.183,100.2a11.122,11.122,0,0,0-5.658,14.614l24.709,56.216a11.152,11.152,0,0,0,10.177,6.635h0a11.152,11.152,0,0,0,10.177-6.635l7.9-18.074,7.9,18.074a11.066,11.066,0,0,0,10.177,6.635h0a11.152,11.152,0,0,0,10.177-6.635l7.775-17.667A38.632,38.632,0,0,0,146.431,180.8h2.157A11.1,11.1,0,0,0,159.7,169.685V155.478h7.164a11.251,11.251,0,0,0,3.175,6.8l10.1,10.177a11.029,11.029,0,0,0,7.856,3.3h.041a11.159,11.159,0,0,0,7.856-3.257l2.809-2.809a38.647,38.647,0,1,0,16.893-73.395c-.651,0-1.3,0-1.954.041V91.243a10.08,10.08,0,0,0,3.257-.651A11.044,11.044,0,0,0,224.059,82a25.009,25.009,0,0,0,8.915,1.75,11.053,11.053,0,0,0,7.205,2.646h7.653a11.1,11.1,0,0,0,11.113-11.113V40.929a11.1,11.1,0,0,0-11.113-11.113h-7.694a11.035,11.035,0,0,0-7.246,2.687,25.294,25.294,0,0,0-12.782,3.664,10.952,10.952,0,0,0-7.042-2.524h-7.653a10.978,10.978,0,0,0-5.5,1.465L194.872,29a11.067,11.067,0,0,0-8.548-4.03,10.831,10.831,0,0,0-3.745.651,11.123,11.123,0,0,0-7.327,10.462Zm11.154,3.3,19.092,23.04V44.837h6.065A25.56,25.56,0,0,0,213.068,73.9v6.31l-19.092-23.04v14.37h-7.653V36.207ZM164.1,83.59H149.565V32.91H164.1Zm-7.246-72.418a8.711,8.711,0,1,1-8.711,8.711A8.695,8.695,0,0,1,156.852,11.172ZM122.536,34.131V25.583h14.532V90.8H122.536V82.369a26.179,26.179,0,0,1-13.026,3.379A27.414,27.414,0,0,1,82.033,58.27a29.176,29.176,0,0,1,.977-7.327l6.554-10.584a10.363,10.363,0,0,0,.977-2.035,27.3,27.3,0,0,1,18.969-7.612A25.788,25.788,0,0,1,122.536,34.131ZM23.577,26.8,45.559,62.341,67.541,26.8l11.846,7.327a38.994,38.994,0,0,0-6.595,12.212l-27.233,44L11.08,34.538ZM91.558,166.551,73.484,125.274,55.369,166.551,30.7,110.334l13.026-5.821,11.642,26.582L73.443,89.818l18.115,41.277L103.2,104.513l13.026,5.821-.611,1.384a38.172,38.172,0,0,0-7.164,16.324Zm42.091-22.145a13.117,13.117,0,0,0,12.782,10.869h2.157v14.451h-2.157a27.414,27.414,0,0,1-27.477-27.477v-7.287a27.846,27.846,0,0,1,.244-3.7l6.106-13.881a27.542,27.542,0,0,1,48.686,17.585v7.775l-1.71,1.71H133.649Zm81.9-36.962a27.518,27.518,0,1,1-18.359,47.993l-9.2,9.2-9.851-9.973a11.148,11.148,0,0,0,6.432-6.839l3.46-3.46V91.446h14.532v19.376A25.691,25.691,0,0,1,215.551,107.444Zm32.24-32.118h-7.653V70.889a13.849,13.849,0,0,1-6.879,1.791,14.42,14.42,0,0,1-9.078-3.216V46.913a14.271,14.271,0,0,1,9.078-3.216,13.849,13.849,0,0,1,6.879,1.791V41.01h7.653Z" transform="translate(0.055 -0.1)"/></g><g transform="translate(11.08 11.132)"><path class="b" d="M61.819,101.278,83.8,65.741l12.538,7.734L61.819,129.284,27.3,73.434,39.838,65.7Z" transform="translate(-27.3 -50.028)"/><path class="b" d="M256.536,62.7v65.213H242v-8.426a26.179,26.179,0,0,1-13.026,3.379,27.518,27.518,0,0,1,0-55.036A26.067,26.067,0,0,1,242,71.208V62.7Zm-40.5,32.688a12.986,12.986,0,0,0,25.971,0,12.986,12.986,0,1,0-25.971,0Z" transform="translate(-130.588 -48.249)"/><path class="b" d="M372.711,44.623a8.711,8.711,0,1,1,8.711-8.711A8.669,8.669,0,0,1,372.711,44.623Zm7.246,55.036H365.425V48.978h14.532Z" transform="translate(-226.94 -27.2)"/><g transform="translate(19.621 78.687)"><path class="b" d="M100.168,261.777,118.242,220.5l18.115,41.277L148,235.2l13.026,5.821-24.668,56.216-18.074-41.277-18.115,41.277L75.5,241.016,88.526,235.2Z" transform="translate(-75.5 -220.5)"/><path class="b" d="M319.777,311.69h2.157v14.451h-2.157A27.414,27.414,0,0,1,292.3,298.664v-7.286a27.518,27.518,0,0,1,55.036,0v9.485H307A13.125,13.125,0,0,0,319.777,311.69Zm.081-33.38a13.091,13.091,0,0,0-12.009,7.979h23.895A13.136,13.136,0,0,0,319.859,278.31Z" transform="translate(-204.047 -246.233)"/><path class="b" d="M474.754,240.5A27.518,27.518,0,1,1,456.4,288.491l-9.2,9.2-10.1-10.177,10.1-10.1V224.5h14.532v19.377A25.954,25.954,0,0,1,474.754,240.5Zm-13.067,27.559a13.026,13.026,0,1,0,13.026-13.026A12.943,12.943,0,0,0,461.687,268.056Z" transform="translate(-289.904 -222.872)"/></g></g><g transform="translate(186.324 36.207)"><path class="c" d="M484.544,132.8l-19.092-23.04v14.37H457.8V88.8l19.092,23.04V97.43h7.653Z" transform="translate(-457.8 -88.8)"/><path class="c" d="M566.524,100.541V134.9h-7.653V130.42a13.849,13.849,0,0,1-6.88,1.791,14.512,14.512,0,0,1,0-29.024,13.849,13.849,0,0,1,6.88,1.791V100.5h7.653ZM545.194,117.76a6.859,6.859,0,1,0,6.839-6.879A6.8,6.8,0,0,0,545.194,117.76Z" transform="translate(-505.057 -95.737)"/></g></g></svg>